<?xml version="1.0" encoding="utf-8"?>
<!-- Generator: Adobe Illustrator 25.4.8, SVG Export Plug-In . SVG Version: 6.00 Build 0)  -->
<svg version="1.1" id="Calque_1" xmlns="http://www.w3.org/2000/svg" xmlns:xlink="http://www.w3.org/1999/xlink" x="0px" y="0px"
	 viewBox="0 0 1366 394" style="enable-background:new 0 0 1366 394;" xml:space="preserve">
<path style="fill:#fff;" d="M1357.5,203.9c-0.6-5.6-0.9-11.3-1.6-16.9c-1-8.1-3.1-14.7-4.8-22.7c-1.2-6-3.1-11.3-6-22.2
	c-2.9-10.8-7.1-20.4-12.1-27.6c-5-7.3-33.1-43.1-37.1-46.8c-5.2-4.8-27.4-30.4-35-35.8c-9.4-6.7-20.3-8.4-30.2-12.3
	c-9.9-3.9-19-4.2-27-7.8c-3.5-1.6-4.7-4.9-4-8.1c0.6-3.1,3.8-3.6,6.8-3.7c4-0.1,8.1-0.3,12.2-0.1c10.6,0.7,20.2,2.5,30.7,4
	c14.4,3.6,22.6,13,32.7,22.6c10.1,9.6,19.5,18.8,30.4,32.2c11,13.6,39.2,58,44,70.3c4.8,12.3,8.2,36.1,9.1,40.4
	c0.2,0.8,0.3,1.6,0.5,2.4V-2.4h-297.5c0.6,0.1,1.2,0.1,1.8,0.2c8.2,0.6,61.6-1.8,94.5,7.2c4.3,1.1,21.8,9,26.6,11.2
	c5.9,2.7,12,5.1,17.9,7.9c3.2,1.5,17.5,10,21.1,12.9c5.2,4.1,9.9,8.8,14.6,13.4c7.9,7.6,34.1,31.6,39.1,36.3
	c5.2,4.9,10.9,9.6,14.9,15.4c6.5,9.5,11.9,19.7,17.3,29.8c4.2,8,15.1,35.5,16.6,41c1.4,5,2.8,10.1,3.8,15.2
	c1.3,7.1-3.2,10.6-10.1,8.2c-2.9-1-6-1.8-8.5-3.4c-7.2-4.4-14.5-8.8-21.4-13.7c-4.5-3.2-8.4-7.2-8.7-13.2
	c-0.3-7.5,0.6-14.9,2.6-22.2c1.1-4.1,1.5-8.8,0.7-13c-1.1-5.5-11.1-12.2-16.9-11.8c-2.4,0.2-5.8,1.4-6.9,3.2
	c-3.2,5.6-5.4,11.9-4.6,18.5c2.1,16.7,11.4,30,23,41.7c4.6,4.6,11.1,7.5,16.6,11.3c9.8,6.7,20.4,11.6,31.8,15.2
	c4.6,1.4,7.8,5,8.6,9.2c2,9.7,3.8,19.6,4.3,29.4c0.7,12-10.7,18.3-21.7,12.6c-1.8-1-3.8-1.6-5.6-2.6c-9.4-5.1-19.1-9.9-28.1-15.5
	c-8-4.9-35.8-24.1-42.3-28.1c-14.6-8.8-29.2-17.7-43.9-26.4c-3.9-2.3-39.1-26.8-52.8-36.8c-7.9-5.8-11.6-13.2-11.9-22.6
	c-0.2-6,3.7-11.7,9.6-13.4c7.5-2.1,15.2-3.7,22.5-6.2c14.7-5.1,29-10.9,43.7-15.8c10.5-3.6,14.5,2.9,16.1,10.5
	c1.8,8.9-2.3,15.7-9.3,21.1c-6.1,4.7-11.5,4-16-2.1c-1.7-2.2-3.9-3.5-6.7-2.4c-4.3,1.7-8.5,3.7-12.6,5.8c-4.2,2.2-5.3,6.8-2.1,10.2
	c4.6,5,10.1,8.3,17.5,6.8c4.7-0.9,9.5-1.9,14.3-2.7c4.5-0.8,8.5-2.4,11.6-5.8c3.6-4,7.2-8,10.7-12.1c2.1-2.5,4.9-5.1,5.7-8
	c2.3-8.3,3.2-16.9-2-24.7c-1.9-2.8-4.5-5.2-6.9-7.6c-5.3-5.3-12-6-18.7-4c-14.3,4.3-28.3,9.4-42.5,13.8
	c-11.7,3.7-40.4,12.4-46.6,14.5c-7.4,2.4-16.5,3.7-21.1-1.6c-2.1-2.4-4.2-4.7-6.2-7.1c-3.4-4.3-19.5-28.4-17.4-41.7
	c0.9-5.6,4.7-15.7,9.9-18.7c8.3-4.8,13.9-6.3,23-6.2c5.1,0.4,10.3,0.5,15.4,1.3l0,0c4.1,0.6,7.2,4.5,7.6,8.5
	c0.4,3.9-1.8,7.2-5.7,9.2c-4.2,2.2-8.4,1.7-12.5,0.3c-3.9-1.2-7.8,0.6-8.1,4.6c-0.6,7.3,3.6,14.1,12,14.1c4.7,0,9.5-0.7,14-2
	c9.5-2.7,17.1-8.4,22.7-16.4c4.2-5.9,4.3-13.6,0.2-17.6c-8-7.6-18.3-11.7-28.9-12.3c-14.8-0.8-15.1-2.1-29.8-0.4
	c-14.1,1.6-27.5,8-28.5,20.1c-0.2,2.5-0.6,20.6-3.6,21.3c-3.2,0.8-13.5-17.3-14.7-19.6c-4.7-8.9-14.9-25.6-17.9-30.8
	c-3.6-6.4-4.7-10.6-4.4-13.5h-30.8c0.3,1.4,0.3,3-0.2,4.6c-0.7,2.4-2.3,4.7-5.5,4.8c-16.6,0.7-33.2,1.4-49.8,2.4
	c-5.9,0.4-11.8,1.2-17.8,2c-2.6,0.4-3.7,2.4-3.4,4.6c0.3,1.6,1,4.1,3.2,5.1c3.2,1.2,6.4,1.5,9.8,1.4c11.6-0.2,23.2-1,34.8-1.3
	c13.2-0.4,26.3-0.8,39.5-0.7c7.1,0,13,3.1,16.4,9.4c2.9,5.6,1.7,9.8-5.3,10.1c-8.3,0.3-16.6,0.3-24.9,0.4
	c-12.9,0.2-25.7,0.2-38.6,0.4l0,0c-9,0.1-27,0.3-27,0.2c-5.6-0.2-11.2,0-16.7-0.7c-5.8-0.8-10.6-3.7-13.8-8.7
	c-4.7-7.5-5.8-15.6-4.5-24.2c0.6-3.6,1.5-7.1,3.4-9.8h-16.7c2,8.1,1.9,15.4-2.4,23.9c-0.6,1.2-1,2.5-1.1,3.8
	c-1.9,15.4,1.3,30.3,5.3,45.1c2.1,7.8,8.4,12,14.4,16.2c6,4.2,30.9,17.9,37.4,19.8c9.5,2.8,35.7,7.5,39,8c6.9,1,13.6-0.2,19.9-2.6
	c4.8-1.8,9.2-4.6,12.3-9.2c4.7-6.8,6-14.4,7.5-22c0.7-3.5-0.7-6.6-3.7-8.8c-2.8-2-5.9-2.5-8.8-0.8c-2.2,1.3-4.2,3.1-5.8,5.1
	c-3.4,4.4-6.5,9.1-9.7,13.6c-4,5.6-9.1,9.4-16.4,9.8c-8.3,0.4-41.9-10.5-50.8-14c-6.5-2.5-11.4-6.5-14.4-13
	c-4.8-10.6-1.6-20,9.3-24.3c2.7-1.1,5.6-1.9,8.5-2c12.9-0.6,38.6-0.7,38.6-0.4l0,0c6-0.1,11.8,0,17.1,3.7c5.2,3.7,6.3,11.4,1.7,15.3
	c-5,4.3-11,5.1-17.1,3.9c-3.6-0.7-7-2.9-8.1-6.7c-1.1-3.6-3.5-4.7-6.9-4.2c-4.3,0.7-8.6,1.5-12.9,2.6c-1.3,0.3-3.2,0.4-3.7,2.2
	c0,1.8,1.7,2.7,2.9,3.6c6.4,4.7,14,6.7,21.5,9.2c4.1,1.1,6.7,1.7,15.1,0.4c11-3.2,16.4-7.2,21-17.7c1.6-3.5,4.2-10.1,8.1-11.3
	c7.9-2.4,16-2.7,24.1-1.1c7,1.5,14.1,3,18.2,9.8c3,5,6.3,9.8,9.2,14.8c4.6,7.7,9.3,15.4,13.4,23.4c3.7,7.2,8.2,14.1,8.8,22.5
	c0.4,7.1-3.5,11.8-8.4,16c-1.7,1.4-4.3,2.3-6.6,2.5c-6.5,0.6-13.1,0.5-19.6,1.2c-6.9,0.8-13.7,1.8-20.4,3.5c-3,0.8-5.9,3-8.2,5.2
	c-5.6,5.7-41.3,37.1-44.9,40.2c-3,2.6-5.4,5.8-8.3,8.4c-6.2,5.5-13.6,8.5-21.7,10.6c-7.1,1.8-14,2.3-21.1,0.6
	c-5-1.2-10.1-2.1-15.2-3c-11-1.9-22.1-3.3-31.6-9.6c-2.1-1.4-4.2-0.7-5.8,1.1c-1.6,1.9-1.5,3.9,0.1,5.8c3,3.7,5.8,7.7,9.3,11
	c3.6,3.4,7.4,7.3,11.9,9.1c9.8,3.9,20,7,30.2,9.9c3.6,1.1,7.7,1.3,11.6,1c20.4-1.7,33.2-15.1,45.6-28.8c3.2-3.6,6.3-7.3,9.6-10.9
	c4.7-5.1,9.4-10.1,14.4-15c3.4-3.3,7-6.3,10.8-9.1c3.3-2.5,6.8-4.8,10.5-6.8c5.7-3.2,11.3-6.6,17.4-9c5.1-2.1,10.6-3.2,16-4.4
	c13.1-2.8,14.1-1.9,20.4,8.1c1.2,1.9,2.1,4.3,2.3,6.6c0.5,6.4-1.6,12.2-4.8,17.6c-2.5,4.4-5.3,8.6-8.3,12.7
	c-1.3,1.8-3.2,3.7-5.2,4.4c-4,1.5-8.2,2.5-12.5,3.1c-3.8,0.6-7.7,0.4-11.6,0.8c-2.2,0.2-4.4,0.5-6.6,1.1c-6.4,1.6-13.3,2.4-19.1,5.1
	c-7.2,3.3-37.3,46.9-41.9,51.7c-1.1,1.2-5.1,5-13.4,6.6c-7.1,0.7-15.9,1.2-23.6,1.1c-9.1-0.1-22.3-6.9-29.2-11.4
	c-4.3-2.8-21.6-17.8-25.9-22c-4.7-4.5-21.6-22.6-25.2-27.2c-4.6-5.8-8.9-11.8-14-17.2c-5.5-5.8-11.7-11.1-17.9-16.3
	c-1.1-1-4.2-1-5.5-0.2c-1.4,0.8-2.7,3.5-2.3,4.9c1.1,4.2,2.3,8.7,4.9,12.1c4.8,6.2,10.5,11.7,15.9,17.5c1.5,1.7,27.1,24.2,28.9,25.6
	c3.5,3,7.4,5.3,8.7,10.5c2,8.3-3.5,15.6-11.7,14.9c-4-0.3-8-0.1-12-0.2c-1.1,0-14.2-2.8-19.4-4.3c-6.3-1.8-12.2-4.8-15.7-10.3
	c-3-4.9-4.9-10.4-7.1-15.7c-2.1-5.1-3.6-10.5-5.7-15.5c-3.4-8-30.2-89.1-30.7-97.6c-0.3-5.5-0.4-11.1,0.7-16.4
	c1.4-6.5,3.6-13,6.6-19.1c5-10.6,27.2-5.3,34.5-1.9c4.2,2,6.6,7.3,7.4,11.2c1.6,7.3,0.2,13.6-6.2,18.7c-5.5,4.4-10.5,9.4-15.8,14
	c-1.8,1.6-3.5,3.3-2.4,5.9c1.2,2.6,2.9,4.6,6.3,4.8c5.7,0.3,9.8-1.9,12.6-6.7c1.4-2.4,2.8-4.8,4.3-7.1c4.7-7.2,10-14,14.2-21.5
	c4.8-8.6,1.5-19.4-7.4-24.3c-5.5-3-11.6-4.9-17.5-7.1c-6-2.3-12.2-3.6-18.6-1.1c-0.8,0.3-1.7,0.3-2.6,0.2
	c-5.7-0.6-10.5-6.2-10.2-13.3c0.2-5.8,0.6-12,2.8-17.3c4.5-11.1,10.1-21.8,15.5-32.6c0.1-0.2,0.2-0.4,0.3-0.6h-9.7
	c-1.5,5.8-5,11.6-10.1,15.6l0,0c-6.5,5.1-12.9,10.4-19.6,15.2c-9.8,7-19.5,14.3-29.9,20.4c-5.3,3.1-44.8,27.6-51.5,32
	c-7.5,4.9-15,9.8-22.6,14.7c-3.1,1.9-6.7,2.2-9.3-0.1c-1.6-1.3-2-4.4-2.2-6.7c-0.7-6.5,3.7-10.3,8.4-13.7c3-2.2,6.1-4.4,9.1-6.6
	c6.2-4.5,30.8-21,36.1-25.7c11.4-10.2,23.1-20.2,34.5-30.3c1.2-1,2.3-2.2,3.3-3.4c2.5-3.2,2.2-7.8,0.1-11.3h-89.2
	c-0.5,0.4-1.1,0.8-1.6,1.2c-4.2,3.5-5.8,7.7-6.7,12.9c-1.1,5.7-0.1,10.9,1.6,16.5c1.3,4.1,3.9,8.1,7.8,10.1
	c9.1,4.7,17.9-1.1,25.2-5.8c5.7-3.7,11-8,16-12.7c2.4-2.2,2.4-4.5,0.9-6.4c-1.2-1.5-4.5-2.2-6.3-2.1c-2.4,0.2-4.1,1.9-4.6,3.2
	c-2.5,5.3-6.2,8.5-12.4,7.8c-3.5-0.4-7.1-0.7-10.3-2c-2-0.8-3.9-2.9-4.7-4.9c-1.4-3.5-0.1-7.7,1.7-10.8c1-1.6,2.2-3.1,3.8-4.2
	c1.7-1.2,6.2-2.2,8.2-2.2c11.4,0.2,20.5,1.2,31.9,1.9c5.3,0.4,10.7,2,15.8,3.7c5.1,1.7,5.8,6.1,3.8,10.6c-1.3,3.1-3.9,5.2-6.3,7.4
	c-2.8,2.6-5.6,5.2-8.4,7.8c-4.5,4.1-51.8,39-64.6,47.1c-4.1,2.6-10.6,1.3-15.3,1.1c-9.2-0.5-19-3.8-21.4-13.5
	c-1-3.9,0.7-7.5,1.7-11.2c3.3-12,11.2-34.4,12.7-39c1.8-5.7,4.2-11.2,6.8-16.6h-14.6c-3,6.4-6.5,11.9-10.6,17.9
	c-3.5,5.1-6.4,10.6-9.3,16.1c-2.7,5.2-5.8,10.2-8.4,15.4c-2.4,4.7-2.6,9.3-2.1,14.4c0.2,2.5,0.6,5.1,1.3,7.5
	c1.8,5.8,7.1,10.9,13.2,12.5c7,1.8,12.4,3.3,19.3,5.4c6.9,2.1,11.6,11.8,10.5,16.8c0,0.2-0.1,0.4-0.2,0.5c-1.6,4.7-7,8.7-11.1,11.3
	c-2.9,1.9-5.7,3.2-9,4.2c-3.7,1.1-7.4,2.3-11.1,3.4c-7.2,2.2-14.5,4.3-21.7,6.4c-7.2,2.1-14.4,4.2-21.9,4.7l0,0
	c-2.7,0.2-5.3,0.1-8-0.2c-2.6-0.3-5.1-0.9-7.6-1.6c-2.2-0.7-4.8-1.4-6.7-2.8c-1.8-1.4-2.7-3.5-3-5.7c-0.3-2.6,0.1-6,2-7.9
	c6.1-6.4,13-10.3,23.5-7c2.8,0.9,4.9-1,6.8-2.7c2-1.8,3.5-4.2,4.3-6.7c0.7-2.1,0.9-4.4,0.3-6.5c-0.7-2.4-2.2-4.4-4-6.2
	c-3.6-3.8-7-7.8-10.9-11.4c-3-2.8-14.9-3.9-18.8-2.3c-8.6,3.7-11.6,12.8-9.3,19.7c2.3,6.9,3.8,11.3-2.9,15.7
	c-2.2,1.4-4.8,1.8-7.4,1.9c-2.8,0.1-5.8,0.1-8.4-1c-2.4-1-4.4-3-6-5C478,99.5,467,80.5,467,80.6c-6.3-10.9-12.9-21.6-18.9-32.7
	c-4.1-7.7-6.1-10.1-7.8-18.8c-0.9-4.7,0.4-7.4,5-8.9c3.8-1.3,7.5-0.5,10.7,1.5c9.4,5.7,14.3,8.1,23.5,14.1c7.8,5.1,17.4,10,27.2,9.6
	c3.5-0.1,7-0.5,10.4-1.1c7-1.2,13.8-3.3,20.4-6c6.2-2.5,12.8-5.5,17.9-9.8c2.5-2.1,4.5-4.6,6.8-6.8c2.2-2.2,4.4-4.4,6.6-6.6
	c3.5-3.6,7-7.3,10.7-10.7c2.5-2.3,4.7-4.6,6.7-6.8h-14.4c-1,1.2-2,2.5-3,3.7c-1.1,1.4-2.3,2.8-3.6,4.1c-4.6,4.8-9.8,9.1-15.2,12.9
	c-2.7,1.9-5.5,3.8-8.3,5.6c-2.8,1.8-5.5,3.9-8.5,5.3c-3.6,1.7-8.1,2.9-12,3.4c-5,0.7-10.1,1.5-15.1,1.1c-11-0.9-20.1-6.4-29.1-12.2
	c-7.8-5.1-13.4-11.7-17.8-19.6c-0.7-1.3-1.3-2.8-1.6-4.3h-12.4c1,3.8-0.1,8.2-2.9,11.2c-2.4,2.6-6.3,4.3-9.9,4.3c-3,0-5-1.6-7.2-3.4
	c-2.4-2-4.5-4.3-6.5-6.7c-1.5-1.7-2.9-3.5-4.3-5.3h-19.2c4.2,5.6,14.3,23.1,14.3,23c6.3,10.9,12.9,21.6,18.9,32.7
	c4.1,7.7,6.1,10.1,7.8,18.8c0.9,4.7-0.4,7.4-5,8.9c-3.8,1.3-7.5,0.5-10.7-1.5c-9.4-5.7-14.3-8.1-23.5-14.1
	c-7.8-5.1-17.4-10-27.2-9.6c-3.5,0.1-7,0.5-10.4,1.1c-7,1.2-13.8,3.3-20.4,6c-6.2,2.5-12.8,5.5-17.9,9.8c-2.5,2.1-4.5,4.6-6.8,6.8
	c-2.2,2.2-4.4,4.4-6.6,6.6c-3.5,3.6-7,7.3-10.7,10.7c-7.5,6.9-13,13.8-15.5,18.7c-4.3,8-10,29.3-16.3,29.3c-6.3,0,5.4-24.8,6.8-28.4
	c2.2-5.5,4.3-9.1,5.7-12.3c3-6.6,6.6-12.2,10.8-18.4c3.5-5.1,6.4-10.6,9.3-16.1c2.7-5.2,5.8-10.2,8.4-15.4c2.4-4.7,2.6-9.3,2.1-14.4
	c-0.2-2.5-0.6-5.1-1.3-7.5c-1.8-5.8-7.1-10.9-13.2-12.5c-7-1.8-12.4-3.3-19.3-5.4c-6.9-2.1-11.6-11.7-10.5-16.8h-40
	c-0.2,0.1-0.3,0.3-0.5,0.4c-4.6,3.4-9.4,6.5-14.2,9.5c-11.3,7.2-22.6,14.2-34,21.2c-7.1,4.3-14.2,8.6-21.2,13
	c-7.7,4.8-15.8,4.3-23.9,2.5c-2.5-0.5-5-3.2-6.5-5.5c-2.1-3.3-1.6-7.3-0.8-11.1c2.5-11.7,10.8-20.3,16.6-30.1h-28.6
	c-0.1,2.7-0.3,5.4-0.9,8c-1.4,6.5-3.6,13-6.6,19.1c-5,10.6-27.2,5.3-34.5,1.9c-4.2-2-6.6-7.3-7.4-11.2c-1.5-6.8-0.3-12.8,5-17.7
	H54.6c-2.1,3.1-4.2,6.3-6,9.6c-4.8,8.6-1.5,19.4,7.4,24.3c5.5,3,11.6,4.9,17.5,7.1c6,2.3,12.2,3.6,18.6,1.1c0.8-0.3,1.7-0.3,2.6-0.2
	c5.7,0.6,10.5,6.2,10.2,13.3c-0.2,5.8-0.6,12-2.8,17.3C97.5,81.4,91.9,92.2,86.6,103c-1.4,2.9-3.8,5.3-5.4,8.2
	c-5.1,9.1-22.9,10.4-24.5,9.9c-1.9-0.6-4.4-2-5.1-3.5c-1.6-3.3-3-7-3-10.6c0-5.2,0.7-10.2-0.8-15.5c-2.1-7.5-3.2-15.3-5.2-22.8
	c-0.4-1.6-2.6-3.3-4.3-3.7c-2.3-0.6-4.7,0.6-5.4,3.2c-0.7,2.5-1.3,5-1.6,7.5c-0.8,7.6-1.1,15.2-2.2,22.7
	c-1.3,8.1-4.1,14.7-12.5,17.5c-2.9,1-5.4,1.4-8.4,2.3C6,118.8,3,118.7,0,117.7v33.2c16,0.1,60.7-0.8,89.6,7.1
	c4.3,1.1,21.8,9,26.6,11.2c5.9,2.7,12,5.1,17.9,7.9c3.2,1.5,17.5,10,21.1,12.9c5.1,4.1,9.9,8.8,14.6,13.4
	c7.9,7.6,34.1,31.6,39.1,36.3c5.2,4.9,10.9,9.6,14.9,15.4c6.5,9.5,11.9,19.7,17.3,29.8c4.2,8,15.1,35.5,16.6,41
	c1.4,5,2.8,10.1,3.8,15.2c1.3,7.1-3.2,10.6-10.1,8.2c-2.9-1-6-1.8-8.5-3.4c-7.3-4.4-14.5-8.8-21.4-13.7c-4.5-3.2-8.4-7.2-8.7-13.2
	c-0.3-7.5,0.6-14.9,2.6-22.2c1.1-4.1,1.5-8.8,0.7-12.9c-1.1-5.5-11.1-12.2-16.9-11.8c-2.4,0.2-5.8,1.4-6.8,3.2
	c-3.2,5.6-5.4,11.9-4.6,18.5c2.1,16.7,11.4,30,23,41.7c4.6,4.6,11.1,7.5,16.6,11.3c9.8,6.7,20.4,11.6,31.8,15.2
	c4.6,1.4,7.8,5,8.6,9.2c1.6,7.8,3,15.7,3.8,23.6h17.1c-1.8-4-2.9-8.3-3.5-12.9c-1-8.3-2-16.5-2.9-24.8c-0.6-5.6-0.9-11.3-1.6-16.9
	c-1-8.1-3.1-14.7-4.8-22.7c-1.2-6-3.1-11.3-6-22.2c-2.9-10.8-7.1-20.4-12.1-27.6c-5-7.3-33.1-43.1-37.1-46.8
	c-5.2-4.8-27.4-30.4-35-35.8c-9.4-6.7-20.3-8.4-30.2-12.3c-9.9-3.9-19-4.2-27-7.8c-3.5-1.6-4.7-4.9-4-8.1c0.6-3.1,3.8-3.6,6.8-3.7
	c4.1-0.1,8.1-0.4,12.2-0.1c10.6,0.7,20.2,2.5,30.7,4c14.4,3.6,22.6,13,32.7,22.6c10.1,9.6,19.5,18.8,30.4,32.2
	c11,13.6,39.2,58,44,70.3c4.8,12.3,8.2,36.1,9.1,40.4c1.6,8,2.4,16.3,4.7,24.1c2.9,10,6.6,19.9,10.7,29.4c3.6,8.3,9.6,15,17.9,18.6
	h26.7c0.9-0.7,1.8-1.4,2.7-2.3c5.4-5.7,9-12.2,5.6-19.9c-6.7-15.1-15.7-28.9-25.8-42.1c-2.8-3.6-5.8-7.2-11-7.8
	c-4-0.4-5.5,0.4-5.1,4.3c0.6,6.3,1.7,12.6,2.4,18.9c0.7,6.2,0.6,6.6,7.2,6.2c5.9-0.3,10.4,4.9,13.5,8.7c4.1,4.9,5,7.6,4,15.1
	c-1.9,7-8,9.4-11.5,10.6c-7.2,2.4-18.2-6.7-20.4-13.8c-2.8-9.2-2.9-10.5-5.5-19.8c-2-7.1-10.2-37.5-10.4-46.1
	c-0.3-10.4,3.8-15.3,14.4-13.8c7,1,12.6,4.5,18,8.4c3.6,2.6,7.1,5.3,9.9,8.6c4,4.5,7.3,9.5,10.8,14.4c2.7,3.8,5.4,7.6,7.8,11.6
	c4.5,7.4,8.8,14.9,13.3,22.3c3.6,5.9,7.8,11.6,10.8,17.8c2.9,6,5.1,12.4,7.2,18.8H412c-4.6-17-11.9-46.8-30.1-66.5
	c-9.8-10.6-22.2-19-34.4-26.6c-5.5-3.4-11.2-6.6-16.5-10.3c-4-2.7-9.2-5.9-11.6-10.3c-8.4-16.2,28.6,3.7,32.5,5.7
	c12.7,6.4,28.1,9.5,33.3,0c4.9-9-3.9-27.3-6.4-30.9c-1.7-2.5-3.2-5.2-6-6.8c-7.9-4.6-15.2-2.2-19,1.5c-2.5,2.4-5.1,5.8-4.3,9.5
	c0.6,2.8,1.5,4.8,4.6,6.1c2.5,1,3.3,1.7,6.4-0.9c3.9-3.3-7.6-4.8,1.6-9.5c5.2-2.6,12.6,11.9,13.1,16.3c0.5,5.9-1.9,9.3-8.2,10.3
	c-6.6,1.1-18.8-5.2-27.4-12.2c-2.9-2.4-5.6-4.3-11.9-5.9c-3.1-0.8-12.3-1.3-16.2-2.5c-13.8-4.3-32.7-30.2-25.3-33
	c3.5,0,4.5,4.3,8.4,7.3c6.6,5.3,14.9,11.9,20,13c8.4,1.9,28-0.3,35.3-9.9c14.5-19,0.3-29.6-22.3-26.7c-8.3,0.5-14.5,2.4-18.9,7.4
	c-5.2,5.9-1.9,10.3,1.1,12.6c2.9,2.2,4.6,2.2,8.3,3.1c3.7,0.9,6.9,1.3,10.1,0.4c4-1.1,4.6-3.8,4.6-7.1c0-1.9-0.3-4.1-4.1-3.7
	c-6,0.7-2.8-13.8,11.1-4.8c5.1,3.3,3.7,12.4-0.6,16.9c-5.2,5.5-15.2,6.9-22.3,5.3c-6.2-1.4-11.9-6.8-17.9-12.8
	c-10.8-10.8-15.1-3.8-24.6-11.2c-1-0.8-4.4-5.3-5.8-8.3c-1.2-2.7-2.1-6.1-2.8-8.4c-3.1-10.2,1.2-22.1,5.5-25.9
	c5.2-4.6,6.1-0.6,8.2,2.3c3.4,4.6,6.3,16,9.9,20.6c9,11.3,18.1,13.6,33,7.2c2.9-1.2,9.1-3.3,7.9-5.7c-1.6-3.1-10,2.1-12.2,0.4
	c-3.7-2.8,11.6-9.4,7.7-13.6c-15.9-17.4-10.5,0.9-14.4,6.3c-3.9,5.4-7.3,5.6-9.6,3.7c-2.8-2.3-17.4-19.9-22.3-24.5
	c-1.6-1.5-0.7-2.4,0.2-2.8c3.2-1.6,10.3-3.8,20.3-3.6c22,0.6,45.4,4,65.1,27.8c38.3,46.4,54.2,125.3,59.4,180.3l0,0.1
	c0.7,7.5,0.8,14.6,0.2,20.3h22.9c-2.1-62.4-18.7-134.5-23.3-150.4c-1.1-3.6-1.6-7.3-0.8-10.7c0.7-3,5.9-8,6.2-7.9
	c3.3-2.5,7.7-4,13-4.5c4.2-0.4,8.6-0.3,12.5,2.6c3.4,2.5,2.3,7.6,6.3,9.7c6.9,3,11.4-0.3,12.2-0.7c1.7-0.8,1.7-3.4,1.8-4.8
	c0.4-5.3-7.8-11.2-16.4-13.2c-7.2-1.7-12.2-0.4-17.3,1.4c-2.5,1-5.3,1.8-8.2,2.3c-1,0.2-27.4-0.5-32.4-6.9c-2.4-3.1-6-6-7.7-11.7
	c-1.7-5.6-6.4-22.2,13.4-24.9c33.9-4.1,62.4,5.6,76.6,14.3h0c11.4,7,13.4,16.7,14.5,24.2c0.7,4.8,1.1,21.7,1.7,25.5
	c0.3,1.9-1.2,3-3.6,3.7c-7.5,2.1-15.2,4-22.5,6.2c-8.6,2.7-15.4,6.7-17.9,12.9c-1.6,4.1-2.2,8.6-2.3,13c-0.1,7.2,7.4,11.9,14.2,16.5
	c2.5,1.7,5.4,3.4,8.5,4.5c6.8,2.4,14.5-0.9,15.5-5.8c0.9-4.8-2.9-7.5-8.2-10.3c-4-2.1-7.6-4.8-10.4-7.6c-1.5-1.6-1.2-4-1.2-6
	c0.1-5.3,3.3-9.9,8.6-13.4c2.6-1.7,7.4-2.3,11.5-2.6c5.8-0.4,9,1.7,11.7,5.2c2.3,3,1.6,5.7,1.8,8.6c0.3,4.7,1.2,9.4,1.2,14
	c-0.1,4.9-3.7,26.4-6.5,30.4c-2.3,3.2-7.5,4.5-12.7,5.5c-9.1,1.9-15.7-1.5-22.5-4.7c-2.4-1.1-4.7-2.3-6.9-3.6
	c1.6,13.1,3.6,29.2,6.4,31.9c0.3,0.3,0.6,0.5,0.9,0.8c1.5,1.6,3.2,1.8,4.9,0.1c0.3-0.3,0.7-0.5,1-0.7c4-3.4,8-6.7,12-10
	c3.9-3.3,10.3-3.9,15.1-2.6c2.6,0.7,5.2,1.7,6.7,3.8c1.7,2.6,1.1,6.1,0.4,9.2c-2.9,13.4-4.9,26.9-5.8,40.6c-0.2,2.7-0.5,5.7-2.7,7.3
	c-1.7,1.2-4.1,1.2-6.1,0.7c-5.4-1.2-10-5.4-11.8-10.5c-1.8-5.2-0.6-11.2,3-15.3c1-1.1,2.1-2.1,2.7-3.4c1.6-3.2-0.4-7.4-3.8-8.9
	c-6.5-2.9-12,2.9-15.8,7.2c-6.7,7.5-6.6,16.7,0,23.2c2.2,2.2,4.7,4.1,6.7,6.3c3.6,4,3.8,6.5,1.9,9.7h63.2c1-7.7,2.7-16.7,4.3-19.2
	c2.2-3.3,7.3-4.8,12.4-6c9-2.3,15.7,0.9,22.7,3.8c2.4,1,4.8,2.1,7.1,3.3c-2.1-13.1-4.8-29-7.8-31.6c-0.3-0.3-0.6-0.5-0.9-0.8
	c-1.6-1.5-3.2-1.7-4.9,0.1c-0.3,0.3-0.7,0.5-0.9,0.7c-3.8,3.5-7.7,7-11.5,10.4c-3.7,3.4-10.1,4.3-15,3.2c-2.6-0.6-5.3-1.5-6.8-3.6
	c-1.9-2.6-1.3-6.1-0.8-9.2c2.4-13.5,3.8-27.1,4.1-40.8c0.1-2.7,0.3-5.7,2.4-7.4c1.6-1.3,4-1.4,6.1-1c5.5,1.1,10.3,5,12.2,10.1
	c2,5.1,1,11.1-2.4,15.4c-0.9,1.1-2,2.2-2.6,3.5c-1.5,3.3,0.7,7.4,4.1,8.8c6.6,2.6,11.8-3.3,15.5-7.8c6.4-7.8,5.9-16.9-0.9-23.2
	c-2.3-2.1-4.9-3.9-7-6.1c-5.2-5.4-3.9-8,0.6-13.9c1.3-1.8,2.5-3.6,3.8-5.4c3.1-4.5,6.1-9,9.4-13.4c1.1-1.5,2.9-2.9,4.6-3.7
	c2.2-1.1,4.2-0.1,4.2,1.9c0.2,42.9,10.4,95.1,19.1,131.6h25.7c-6.7-28.7-10.4-57.4-12.1-81.6l0,0c-1.3-18.4,1-34.2,7.2-33.2
	c5.7,0.9,8,51.1,33.8,80.3c9.5,10.8,21.7,19.5,33.8,27.4c3.7,2.4,7.5,4.7,11.2,7.2h19.5c-4.4-1.6-8.3-4.1-12.1-6.9
	c-3.6-2.6-7.1-5.3-9.9-8.6c-4-4.5-7.3-9.5-10.8-14.4c-2.7-3.8-5.4-7.6-7.8-11.6c-4.5-7.4-8.8-14.9-13.3-22.3
	c-3.6-5.9-7.8-11.6-10.8-17.8c-3.2-6.6-5.5-13.6-7.7-20.5c-2.7-8.3,1.7-17.1,11-17.6l0,0c8.7-0.5,23.9-0.7,26-0.5
	c7.6,0,15.2-0.2,22.8,0.1c5.6,0.2,11.3,0.5,16.6,1.8c6.4,1.6,13.2,3,17.8,8.6c5.4,6.5,8.3,14,9.3,22.2c1,8.3,2,16.5,2.9,24.8
	c0.6,5.6,0.9,11.3,1.6,16.9c1,8.1,3.1,14.7,4.8,22.7c1.2,6,3.1,11.4,6,22.2c0.1,0.3,0.2,0.5,0.2,0.8h24.2
	c-4.9-11.3-11.1-27.4-12.2-31.4c-1.4-5-2.8-10.1-3.8-15.2c-1.3-7.1,3.2-10.6,10.1-8.2c2.9,1,6,1.8,8.5,3.4
	c7.3,4.4,14.5,8.8,21.4,13.7c4.5,3.2,8.4,7.2,8.7,13.2c0.3,7.5-0.6,14.9-2.6,22.2c-0.2,0.8-0.4,1.5-0.5,2.3H855
	c-2.3-16.4-11.4-29.5-22.9-41c-4.6-4.6-11.1-7.5-16.6-11.3c-9.8-6.7-20.4-11.6-31.8-15.2c-4.6-1.4-7.8-5-8.6-9.2
	c-2-9.7-3.7-19.6-4.3-29.4c-0.7-12,10.7-18.3,21.7-12.6c1.8,1,3.8,1.6,5.6,2.6c9.4,5.1,19.1,9.9,28.1,15.5
	c8,4.9,35.8,24.2,42.3,28.1c14.6,8.8,29.2,17.7,43.9,26.4c3.9,2.3,39.1,26.8,52.8,36.8c3.7,2.7,6.5,5.8,8.4,9.2h124.7
	c1.5-1,2.8-2.1,4-3.3c5.6-5.7,41.3-37.1,44.9-40.2c3-2.6,5.4-5.8,8.3-8.4c6.2-5.5,13.6-8.5,21.7-10.6c7.1-1.8,14-2.3,21.1-0.6
	c5,1.2,10.1,2.1,15.2,3c11,1.9,22.1,3.3,31.6,9.6c2.1,1.4,4.2,0.7,5.8-1.1c1.6-1.9,1.5-3.9-0.1-5.8c-3-3.7-5.8-7.7-9.3-11
	c-3.6-3.4-7.4-7.3-11.9-9.1c-9.8-3.9-20-7-30.2-9.9c-3.7-1.1-7.7-1.3-11.6-1c-20.4,1.7-33.2,15.1-45.6,28.8
	c-3.2,3.6-6.3,7.3-9.6,10.9c-4.7,5.1-9.4,10.1-14.4,15c-3.4,3.3-7,6.3-10.8,9.1c-3.3,2.5-6.8,4.8-10.5,6.8c-5.7,3.2-11.3,6.6-17.4,9
	c-5.1,2.1-10.6,3.2-16,4.4c-13.1,2.8-14.1,1.9-20.4-8.1c-1.2-1.9-2.1-4.3-2.3-6.6c-0.5-6.4,1.6-12.2,4.8-17.6
	c2.5-4.4,5.3-8.6,8.3-12.7c1.3-1.8,3.2-3.7,5.2-4.4c4-1.5,8.2-2.5,12.5-3.1c3.8-0.6,7.7-0.4,11.6-0.8c2.2-0.2,4.4-0.5,6.6-1.1
	c6.4-1.6,13.3-2.4,19.2-5.1c7.2-3.3,37.3-46.9,41.9-51.7c1.1-1.2,5.1-5,13.4-6.6c7.1-0.7,15.9-1.2,23.6-1.1
	c9.1,0.1,22.3,6.9,29.2,11.4c4.3,2.8,21.6,17.8,25.9,22c4.7,4.5,21.6,22.6,25.2,27.2c4.6,5.8,8.9,11.8,14,17.2
	c5.6,5.8,11.7,11.1,17.9,16.3c1.1,1,4.2,1,5.6,0.2c1.4-0.8,2.7-3.5,2.3-4.9c-1.1-4.2-2.3-8.7-4.9-12.1c-4.8-6.2-10.5-11.7-15.9-17.5
	c-1.6-1.7-27.1-24.2-28.9-25.6c-3.5-3-7.4-5.3-8.7-10.5c-2-8.3,3.5-15.6,11.7-14.9c4,0.3,8,0.1,12,0.2c1.1,0,14.2,2.8,19.4,4.3
	c6.3,1.8,12.2,4.8,15.7,10.3c3,4.9,4.9,10.4,7.1,15.7c2.1,5.1,3.6,10.5,5.7,15.5c2.2,5.2,14.3,41.3,22.6,68.3h21.9V245.7
	c-3.1-5.2-4.9-10.9-5.6-17C1359.4,220.4,1358.4,212.2,1357.5,203.9z M247.5,130.7c-1.3,1-2.8,1.8-4.3,2.3c-8.3,3-16.5,1.3-24.9,1.3
	c-9.7-0.1-19.3-0.2-29-0.5c-5.2-0.1-10.4-0.8-15.6-1.2c-10.7-0.8-21.6-0.7-32.2-2.4c-12.8-2-25.3-5.5-37.9-8.4
	c-3.9-0.9-6.5-3.2-7.6-7.2c-2.5-8.5,1.8-20.1,10.2-26.7l0,0c6.5-5.1,12.9-10.4,19.6-15.2c9.8-7,19.5-14.3,29.9-20.4
	c5.3-3.1,44.8-27.6,51.5-32c7.5-4.9,15-9.8,22.6-14.7c3.1-1.9,6.7-2.2,9.3,0.1c1.6,1.3,2,4.4,2.2,6.7c0.7,6.5-3.7,10.3-8.4,13.7
	c-3,2.2-6.1,4.4-9.1,6.6c-6.2,4.5-30.8,21-36.1,25.7c-11.4,10.2-23.1,20.2-34.5,30.3c-1.2,1.1-2.3,2.2-3.3,3.4
	c-4.1,5.2-0.6,14.5,6,15.9c4,0.9,8.1,1.7,12.2,2.4c10.4,1.8,21,2.7,31.6,2.7c1.2,0,2.5,0,3.7,0c6.8-0.1,13.9-0.2,20.5-2
	c6.2-1.7,11.9-4.8,16.8-8.9c4.2-3.5,5.8-7.7,6.7-12.9c1.1-5.7,0.1-10.9-1.6-16.5c-1.3-4.1-3.9-8.1-7.8-10.1
	c-9.1-4.7-17.9,1.1-25.2,5.8c-5.7,3.7-11,8-16,12.7c-2.4,2.2-2.4,4.5-0.9,6.4c1.2,1.5,4.5,2.2,6.3,2.1c2.4-0.2,4.1-1.9,4.6-3.2
	c2.5-5.3,6.2-8.5,12.4-7.8c3.5,0.4,7.1,0.7,10.3,2c2,0.8,3.9,2.9,4.7,4.9c1.4,3.5,0.1,7.7-1.7,10.8c-1,1.6-2.2,3.1-3.8,4.2
	c-1.7,1.2-6.2,2.2-8.2,2.2c-11.4-0.2-20.5-1.2-31.9-1.9c-5.3-0.4-10.7-2-15.8-3.7c-5.1-1.7-5.8-6.1-3.8-10.6
	c1.3-3.1,3.9-5.2,6.3-7.4c2.8-2.6,5.6-5.2,8.4-7.8c4.5-4.1,51.8-39,64.6-47.1c4.1-2.6,10.6-1.3,15.3-1.1c9.2,0.5,19,3.8,21.4,13.5
	c1,3.9-0.7,7.5-1.7,11.2c-3.3,12-11.2,34.4-12.7,39c-4.3,13.4-11.2,25.8-18.3,37.9C250.7,127,249.4,129.2,247.5,130.7z M498.2,165.2
	c-1.2,1.5-2.8,2.6-4.6,3.5c-3.5,1.7-7.6,2.3-11.5,2.1c-0.4,0-0.7,0-1.1-0.1c-3.6-0.3-7-1.4-10.5-2.2c-3.7-0.8-7.4-1.7-11.1-2.5
	c-7.5-1.7-15.1-3.3-22.7-4.8c-7.7-1.5-15.6-2.1-23.4-2.4c-10.9-0.4-62.3-5.1-70.3-5.4c-14.9-0.5-29.5-2.1-43.9-6
	c-2.6-0.7-5.3-1.8-7.2-3.8c-2-2.2-2.1-5.5-2.1-8.3c-0.3-13.7,9.7-25,17.9-35.2c1.1-1.4,2.3-2.8,3.6-4.1c4.6-4.8,9.8-9.1,15.2-12.9
	c2.7-1.9,5.5-3.8,8.3-5.6c2.8-1.8,5.5-3.9,8.5-5.3c3.6-1.7,8.1-2.9,12-3.4c5-0.7,10.1-1.5,15.1-1.1c11,0.9,20.1,6.4,29.1,12.2
	c7.8,5.1,13.5,11.7,17.8,19.6c1.1,2.1,1.9,4.5,2,6.8c0.2,2.1-0.2,4.4-1.4,6.2c-1.1,1.8-2.8,3.2-4.5,4.4c-5.5,4-12,7.2-19.1,7
	c-12.8-0.4-25.6-0.9-38.4-1c-3.9,0-7.9-1.5-11-3.9c-2.2-1.7-4-4.1-4.6-6.8c-0.9-4.4,2.2-9.1,5.8-11.7c3.2-2.3,7.6-1.8,11.3-1.4
	c6.9,0.6,8.5,2.5,8.6,9.3c0.1,2.3,0.9,3.2,3.2,3.1c4.9-0.3,9.9-0.2,14.8-0.7c2-0.2,4.7-0.9,5.5-2.3c1.4-2.4-0.7-4.4-2.8-6.1
	c-1-0.9-2.1-1.7-3.2-2.4c-5.3-3.6-11.5-5.8-17.8-7.3c-3.1-0.7-6.4-1.6-9.6-1.6c-3.5,0-6.9,0.9-10,2.2c-4.4,1.9-8.4,4.8-12.2,7.7
	c-2.8,2.1-5.6,4.4-7.3,7.5c-1.8,3.3-1.7,7.4-0.9,10.9c1.1,5.3,5.9,6.6,10.6,7.3c7.5,1.2,15.1,2.1,22.7,3c2,0.2,16.2,1.5,21.3,1.6
	l0,0c14.1,0.2,42.3,0.6,42.3,0.9c3,0,6,0,9.1,0c5.1,0,6.8-1.5,6.8-6.5c-0.1-6.9-2.7-13.2-6.2-19.2c-2.5-4.4-1.7-10.1,1.8-13.9
	c2.4-2.6,6.3-4.3,9.9-4.3c3,0,5,1.6,7.2,3.4c2.4,2,4.5,4.3,6.5,6.7c4,4.7,7.6,9.9,11.8,14.5c7.4,8.2,16.7,14.8,23,23.8
	c4.1,5.8,7.7,13.4,8,20.5C500.7,159.9,500,162.9,498.2,165.2z M759.2,152c-2.9,5.4-7.7,9.9-11.8,14.6c-1.2,1.4-3.1,2.2-4.3,3.6
	c-2.5,2.8-5.3,4.7-9.8,4.5c-5.6,0.2-12.4-6-10.9-11.5c2.1-7.9,5.6-15.4,13.6-19.7c1.8-1,3.3-2.7,5.2-3.5c3.4-1.5,7.3-4.1,10.4-3.5
	C758.4,137.8,762.5,145.8,759.2,152z M517.8,166c8.4-4.5,21.5-3.2,30.9-4.6c4.7-0.5,11-0.7,13.3-5.4c1-2,0.2-3.2,1.4-5
	c2.1-3.3,12.2-5.2,22.4-7c13.1-2.4,32.5-4.9,35.4,0.5c2.2,4.1-0.8,7.7-4.4,10.7l0,0c-5.4,4.5-12.5,6.8-19.4,8.9
	c-7.8,2.4-15.5,5-23.1,8c-5.4,2.1-11,4.3-16.6,6.1c-10.8,3.5-22.1,5.8-33.7,3.6C515.8,180.3,507.5,171.5,517.8,166z M771.1,244.4
	c-8.4,3.6-48.7,13.9-98.1,16.4c-12.7,0.6-56,0.7-68.6-1.1c-7.7-1.1-14.2-1.3-14.9-8.8c-0.3-3.3,1-7.6,3.2-10.1
	c3.2-3.6,7.7-6.2,11.8-8.9c3-2,6.5-3.5,9.5-5.6c7.2-5.2,15.5-8.1,23.9-10.3c15.1-4.1,30.5-3.6,45.8-1.8c5.1,0.6,10.2,2.2,13.8,6.4
	c3.3,3.8,2.8,7.3-1.3,10.2c-8.1,5.7-17.1,5.9-26.3,4.4c-2.2-0.4-4.7-1.6-6.2-3.2c-2.4-2.5-5.1-3.4-8.4-3c-9.1,1.2-17.7,3.9-25.7,8.2
	c-1.2,0.7-2.7,2.4-2.5,3.5c0.2,1.3,1.8,2.7,3.1,3.6c0.8,0.6,22,3.6,31.5,5.2c16.5,2.8,32.1-0.5,47.3-6.3c4.9-1.8,9.8-4.6,11.7-10
	c2.5-7.1-3.1-16.2-8.3-18.6c-7.7-3.5-15.8-6.4-23.8-9.2c-16.8-5.8-33.7-2.6-50.5-0.1c-7.4,1.1-14.8,3-22,5
	c-8.8,2.5-17.3,6.1-22.7,13.6c-7.1,9.7-13.8,19.7-20.3,29.8c-3.5,5.4-10.7,10.1-14.5,10.9c-3.8,0.9-7.7-0.3-8.9-3.5
	c-1.2-3.3-0.9-6.9,0.4-9.5c4-7.8,11.8-19.3,13.1-21.5c1.3-2.2,2.8-3.2,1.6-5.3c-1.2-2-4.8-1.6-6.1-1.6c-1.2,0-22.3,4-33.3,5.5
	c-0.5,0.1-0.9,0.1-1.4,0.1c-2.9,0.2-5.7-0.5-7.5-2.7c-2.4-3-2.5-7-1.6-10.6c0.5-2,1.6-4,3.4-5.2c1-0.7,2.3-1.1,3.4-1.5
	c7.1-2.2,14.3-3.8,21.7-4c13-0.2,26.2-0.6,39-2.9c19.1-3.5,37.7-8.9,55.8-15.9c1.7-0.6,3.3-1.5,4.9-2.3c5.4-2.6,10.7-5.3,15.9-8.1
	c6.1-3.2,12-6.4,17.2-10.9c5.5-4.8,10.4-10.5,15.2-15.9c4-4.5,8.2-9.1,11.3-14.2c6.8-11.6,11.1-24.3,10.6-38.1
	c-0.1-2.7-0.5-5.7-2.9-7.4c-1.3-0.9-2.9-1.3-4.5-1.4c-6.6-0.6-11.7,4.6-16.5,8.1c-5.7,4.1-11.2,8.4-16.5,13
	c-5,4.3-9.1,9.7-13.2,14.9c-2.5,3.2-0.5,7.8,3.1,8.4c4.8,0.7,11.8-4.6,12.5-9.3c0.2-1.6,0.8-3.3,1.6-4.6c4.3-6.5,14.5-10.2,22.2-8.1
	c1,0.3,2.1,1.2,2.7,2.1c2.9,4.2,2.1,10.7-2,13.7c-3.2,2.4-6.4,4.7-9.7,7c-3.5,2.5-7,5-10.6,7.5c-3.2,2.2-6.4,4.6-10,6.3
	c-5.8,2.7-12.7,3.8-19.3,3.7l0.1-0.1c-3.3-0.1-6.5-0.5-9.5-1.1c-5.1-1.1-8.7-6.1-9.9-10.9c-2.4-10.1,0.8-16.7,9.3-23.9
	c4.4-3.7,8.6-7.7,13.1-11.1c4.6-3.4,9.4-6.5,14.2-9.5c11.3-7.2,22.6-14.2,34-21.2c7.1-4.3,14.2-8.6,21.2-13
	c7.7-4.8,15.8-4.3,23.9-2.5c2.5,0.5,5,3.2,6.5,5.5c2.1,3.3,1.6,7.3,0.8,11.1c-2.6,12.1-11.4,20.9-17.3,31.3
	c-4.4,7.8-9.6,15.1-13.3,23.2c-0.9,2-1.7,4.2-2.4,6.3c-2.2,6.2-4.1,12.5-5.7,18.9c-0.8,3.3-2,6.7-2,10.1c0,3.8,1.2,7.6,2.8,11.1
	c2.1,4.7,5.6,8.6,10.6,10.4c3.1,1.2,25,12.7,38.4,19.6c5.1,2.6,22.7,11.2,22.9,22.1C787.8,237,774.6,242.9,771.1,244.4z
	 M1118.2,301.1c-4.7,5.3-15.6,12.8-28.1,17.1c-12.4,4.3-9.9,6.4-30.6,5.7c-12.2-0.4-28.3-8.4-32.1-15.2c-1.4-2.5-4.9-16-8-15.8
	c-3.3,0.3-40.4,0.1-55.9,0.1c-15.5,0-21.1-0.7-24.5,3.5c-3.5,4.3-2.9,6.1-4.1,10.3c-1.6,5.4,5.1,9.6,7.6,11.9
	c2.5,2.3,30.4,26.8,33.6,30.6c1.6,1.8,3.2,3.6,5.1,5.1c2.1,1.6,16.6,14.4,19,12.5c5.2-4,3.8-16.7,0.5-21.6
	c-3.3-4.9-8.9-13.4-15.7-13.4c-0.5,0-5.6,1.9-6.1,1.9c-3.9,0.2-6.9-1.2-8.3-4.7c-1.3-3.3-1-6.7,1.9-9.5c3.7-3.6,12.6-5.4,19.2-2.5
	c6.5,3,10.6,5.9,14.9,9.3c4.3,3.4,7.9,9.4,11.3,14.1c3.5,4.7,8.2,14.4,7.4,24.2h0.1c-0.8,9.8-3.1,15.3-4.5,19.9
	c-1.4,4.5-7.8,10.4-15.1,9.1c-5.8-0.8-18.7-10.6-22.2-13.3c-13.8-10.7-27.7-21.3-41.5-31.9c-2.2-1.7-53.3-36.4-57.6-38.8
	c-23.7-12.1-22-15.9-18.6-22.5c1.7-1.2,3.2-4,14.7-5c11.7-1.1,55.5-1.9,60.4-2.2c3.1-0.2,50.5-1.5,66.2-1.4
	c15.7,0.1,59.8-0.1,75.4-0.1s35.4-1.3,39.4,2.7C1128.9,288,1122.2,296.7,1118.2,301.1z M1252,248.9c-1.7,1.2-3.3,4-14.7,5
	c-11.7,1.1-55.5,1.9-60.4,2.2c-3.1,0.2-50.5,1.5-66.2,1.4c-15.7-0.1-59.8,0.1-75.4,0.1c-15.7,0-35.4,1.3-39.4-2.7
	c-6.8-7-0.1-15.7,3.8-20.1c4.7-5.3,15.7-12.8,28.1-17.1c12.4-4.3,9.9-6.4,30.6-5.7c12.2,0.4,28.3,8.4,32.1,15.2
	c1.4,2.5,4.9,16,8,15.8c3.3-0.3,40.4-0.1,55.9-0.1c15.5,0,21.1,0.7,24.5-3.5c3.5-4.3,2.9-6.1,4.1-10.3c1.6-5.4-5.1-9.6-7.6-11.9
	c-2.5-2.3-30.4-26.8-33.6-30.6c-1.6-1.8-3.2-3.6-5.1-5.1c-2.1-1.6-16.6-14.4-19-12.5c-5.2,4-3.8,16.7-0.5,21.6
	c3.3,4.9,8.9,13.4,15.7,13.4c0.5,0,5.6-1.9,6.1-1.9c3.9-0.2,6.9,1.2,8.2,4.7c1.3,3.3,1,6.7-1.9,9.5c-3.7,3.6-12.6,5.4-19.2,2.5
	c-6.5-3-10.6-5.9-14.9-9.3c-4.3-3.4-7.9-9.4-11.3-14.1c-3.5-4.7-8.2-14.3-7.4-24.2h-0.1c0.8-9.8,3.1-15.3,4.5-19.9
	c1.4-4.5,7.8-10.4,15.1-9.1c5.8,0.8,18.7,10.6,22.2,13.3c13.8,10.7,27.7,21.3,41.5,31.9c2.2,1.7,53.3,36.4,57.6,38.8
	C1257,238.5,1255.3,242.3,1252,248.9z"/>
</svg>
