<svg width="547" height="49" viewBox="0 0 547 49" fill="none" xmlns="http://www.w3.org/2000/svg">
<mask id="mask0_1109_372" style="mask-type:luminance" maskUnits="userSpaceOnUse" x="0" y="0" width="547" height="49">
<path d="M547 0V49H0V0H547Z" fill="white"/>
</mask>
<g mask="url(#mask0_1109_372)">
<path d="M-145.25 30.8696C-150.89 26.5096 -155.8 21.3696 -160.93 16.4696C-165 12.5696 -168.8 8.42961 -172.76 4.43961C-173.414 3.88678 -174.117 3.39474 -174.86 2.96961V-0.900391C-112.21 -0.700391 -49.57 -0.600391 13.08 -0.200391C26.24 -0.120391 39.41 0.579609 52.58 0.799609C56.08 0.849609 59.75 0.359609 63.15 0.559609C69.77 0.939609 76.37 -0.320391 82.89 0.459609C90.07 1.33961 97.2 0.679609 104.31 0.429609C131.28 -0.490391 158.25 0.0896093 185.22 0.129609C195.22 0.149609 205.22 0.229609 215.22 0.269609C221.16 0.299609 227.12 0.519609 233.06 0.349609C249.03 -0.100391 265 0.0896094 280.98 -0.000390649C294.58 -0.0803906 308.2 -0.300391 321.79 -0.260391C333.23 -0.220391 344.68 -0.280391 356.12 -0.160391C362.6 -0.0903906 369.07 -0.240391 375.55 -0.260391C417.82 -0.380391 460.08 0.239609 502.35 -0.130391C512.93 -0.230391 523.52 -0.310391 534.1 -0.370391C536.76 -0.390391 539.43 -0.120391 542.08 -0.100391C551.85 -0.0203907 561.62 -0.140391 571.39 -0.200391C575.21 -0.230391 579.03 -0.440391 582.84 -0.300391H582.95L582.67 5.27961L582.33 5.30961C582.41 5.50961 582.52 5.68961 582.63 5.85961L582.39 10.6496C582.256 10.5165 582.129 10.3763 582.01 10.2296C580.75 8.68961 579.24 7.35961 578 5.80961C577.823 5.59539 577.594 5.42977 577.335 5.32831C577.076 5.22685 576.796 5.19289 576.52 5.22961C572.87 5.17961 569.22 5.20961 565.57 5.20961L565.27 5.69961C571.48 10.2296 576.08 16.4196 581.88 21.5896C581.797 23.7558 581.726 25.9225 581.67 28.0896C578.21 24.3096 574.62 20.6596 571.27 16.7696C568.48 13.5496 565.31 10.5896 562.52 7.35961C560.56 5.07961 558.15 4.95961 555.66 4.60961C553.81 4.34961 551.94 4.30961 549.66 4.13961C551.07 6.11961 552.66 7.95961 554.43 9.63961C556.859 12.1474 558.984 14.9334 560.76 17.9396C561.13 18.3796 561.54 18.7696 561.98 19.1296C566.72 24.1996 571.23 29.4496 574.52 35.6196C575.159 36.7268 576.012 37.6956 577.03 38.4696C577.3 38.6896 577.76 38.8296 577.83 39.0896C578.47 41.1896 579.93 41.7696 581.53 42.0396C581.561 44.4871 581.628 46.934 581.73 49.3796L-174.85 47.5296V40.7496L-172.93 40.5796C-173.398 39.7687 -174.061 39.0879 -174.86 38.5996V31.7296C-173.23 32.9696 -172.56 34.9696 -171.21 36.3896C-168.6 39.1396 -165.66 41.2496 -161.43 40.4896C-159.661 40.327 -157.882 40.3103 -156.11 40.4396L-174.86 20.9996V14.9896C-170.01 19.4796 -164.99 23.7896 -160.56 28.7096C-158.03 31.5096 -155.6 34.3696 -153.33 37.3796C-152.72 38.1996 -151.69 38.1596 -151.03 38.8696C-150.51 39.4296 -150.1 38.7196 -149.88 38.3696C-148.486 36.2884 -146.84 34.3873 -144.98 32.7096C-144.11 31.8396 -144.58 31.4096 -145.26 30.8696M-133.82 3.10961C-134.92 1.77961 -138.3 1.84961 -139.52 3.25961C-139.92 3.71961 -140.44 3.59961 -140.92 3.59961H-146.89L-147.15 4.04961C-143.45 5.80961 -141.41 9.39961 -138.15 11.6996C-135.815 13.237 -133.95 15.3895 -132.76 17.9196C-132.43 18.6796 -131.75 19.1796 -130.94 18.2696L-130.64 17.9696C-129.14 16.4396 -126.76 15.0896 -126.39 13.3296C-126.05 11.7396 -128.67 10.2696 -129.79 8.59961C-131.04 6.69705 -132.388 4.86121 -133.83 3.09961M-114.63 3.07961C-114.89 2.53961 -115.65 2.67961 -116.21 2.64961C-120.44 2.35961 -124.66 2.14961 -129.07 2.24961C-127.4 5.46961 -123.77 6.74961 -122.42 10.5196C-120.52 7.49961 -117.31 6.74961 -115.42 4.35961C-115.09 3.93961 -114.33 3.67961 -114.62 3.07961M44.33 4.59961C39.2 3.98961 34.07 4.79961 28.67 4.42961C29.67 5.92961 31.03 6.46961 32.13 7.28961C34.0088 8.80964 35.7096 10.5373 37.2 12.4396C37.9 13.2696 38.86 13.4896 39.63 14.1096C43.3968 17.094 46.8784 20.4216 50.03 24.0496C51.31 25.5396 52.36 27.0996 54.22 27.9796C54.4064 28.1223 54.6399 28.1893 54.8736 28.167C55.1073 28.1448 55.3239 28.0349 55.48 27.8596C57.4227 26.1858 59.3828 24.5324 61.36 22.8996C61.97 22.3996 61.92 21.9996 61.36 21.5296C55.6 16.5896 50.79 10.7196 45.72 5.09961C45.3406 4.77092 44.8518 4.59613 44.35 4.60961M67.4 9.66961C66.5863 8.77502 65.8752 7.79225 65.28 6.73961C64.9151 5.92753 64.2999 5.25356 63.5244 4.81631C62.7488 4.37906 61.8537 4.2015 60.97 4.30961C57.4 4.50961 53.82 4.36961 50.2 4.36961C54 8.51961 58.67 11.5696 62.22 15.8096C62.4 16.0296 62.61 16.2396 62.78 16.4596C64.69 18.8796 64.72 18.9096 67.01 16.5296C68.09 15.4096 70.02 14.4996 70.01 13.0996C69.99 11.9396 68.37 10.7796 67.4 9.66961ZM68.68 4.68961C70.5654 5.79457 72.1463 7.35135 73.28 9.21961C73.49 9.55961 73.69 10.3596 74.33 9.70961C76.09 7.87961 78.23 6.50961 80.08 4.68961H68.68ZM240.28 4.66961C235.52 5.01961 230.75 5.11961 225.98 4.94961C228.279 6.87137 230.503 8.87948 232.65 10.9696C237.07 15.2896 242.26 18.7996 246.3 23.5496C247.64 25.1196 248.47 27.1496 250.75 27.8496C251.32 28.0296 251.6 28.3496 252.15 27.8496C254.089 26.1708 256.053 24.5206 258.04 22.8996C258.66 22.3896 258.54 21.9996 258 21.5296C252.27 16.6196 247.52 10.7796 242.45 5.24961C242.162 4.98501 241.814 4.79477 241.436 4.69543C241.058 4.59608 240.661 4.59066 240.28 4.67961M263.28 8.82961C263.121 8.67996 262.989 8.50406 262.89 8.30961C261.4 4.25961 258.3 3.63961 254.47 4.20961C252.1 4.55961 249.67 4.52961 247.31 4.66961C250.91 8.91961 255.67 11.7796 259.08 16.0696C259.3 16.3396 259.58 16.5796 259.78 16.8696C261.21 19.0296 261.25 19.0696 262.98 17.2196C264.28 15.8196 266.69 14.6896 266.64 13.0196C266.59 11.5996 264.48 10.2196 263.28 8.81961M265.81 4.90961C267.451 6.03108 268.84 7.48186 269.89 9.16961C270.09 9.48961 270.27 10.3396 270.93 9.73961C272.777 8.03681 274.706 6.4249 276.71 4.90961H265.81ZM436.5 4.20961H424.67C423.91 4.20961 422.95 3.92961 422.63 4.90961C422.29 5.95961 423.4 6.03961 423.95 6.43961C426.306 8.17126 428.4 10.2323 430.17 12.5596C430.77 13.3596 431.74 13.4896 432.47 14.0696C436.25 17.0307 439.739 20.3458 442.89 23.9696C444.17 25.4696 445.15 27.1196 447.09 27.9396C447.63 28.1596 447.88 28.2996 448.34 27.8996C450.334 26.1876 452.344 24.4942 454.37 22.8196C455.01 22.2796 454.77 21.9596 454.25 21.4996C451.829 19.4113 449.547 17.1665 447.42 14.7796C444.62 11.5996 441.59 8.61961 438.8 5.43961C438.536 5.06994 438.19 4.7659 437.789 4.55092C437.389 4.33594 436.944 4.21575 436.49 4.19961M459.99 9.29961C458.89 8.22961 458.34 6.81961 457.39 5.65961C457.179 5.33002 456.873 5.07171 456.513 4.91832C456.152 4.76493 455.754 4.72357 455.37 4.79961C453.125 5.16134 450.828 5.02824 448.64 4.40961C446.87 4.00961 444.93 4.32961 443 4.32961C446.7 8.29961 451.14 11.2896 454.66 15.2596C455.1 15.7296 455.52 16.2196 455.91 16.7296C457.51 18.9596 457.5 18.9696 459.53 16.9196L459.68 16.7596C460.78 15.4596 462.98 14.5296 462.94 13.0296C462.91 11.7596 461.14 10.4296 459.98 9.29961M461.75 4.87961C463.638 5.91603 465.197 7.46125 466.25 9.33961C466.49 9.71961 466.7 10.1396 467.21 9.71961C468.887 8.07719 470.761 6.64957 472.79 5.46961C473.03 5.35961 473.06 4.83961 473.24 4.38961C469.54 5.49961 465.83 4.26961 461.75 4.87961ZM562.65 42.0996H574.52C571.18 37.9996 567.92 34.3296 565.06 30.3696C561.7 25.7196 557.98 21.3496 554.77 16.5596C552.571 13.0914 550.042 9.84305 547.22 6.85961C546.59 6.23961 547.22 4.88961 545.85 4.80961C545.6 4.79961 545.3 4.40961 545.13 4.45961C540.76 5.95961 536.25 4.59961 531.33 5.21961C532.346 6.4532 533.431 7.62841 534.58 8.73961C537.61 11.3296 539.64 14.6896 542.1 17.7196C543.93 19.9796 546.25 21.8496 548.08 24.1396C550.59 27.2696 553.56 30.1896 555.36 33.6896C556.98 36.8296 560.23 38.4496 561.56 41.6296C561.79 42.1596 562.23 42.0896 562.64 42.0996M541.69 42.9796C547 42.4796 551.77 43.7796 556.49 41.8796C553.55 38.4696 550.43 35.2396 547.78 31.6696C544 26.5696 539.73 21.8796 536.15 16.6096C533.53 12.7596 530.26 9.27961 527.45 5.50961C527.08 5.00961 526.44 5.04961 525.86 4.98961C519.83 4.36961 513.83 5.08961 507.4 5.15961C509.127 7.0684 511.025 8.81564 513.07 10.3796C515.546 12.6311 517.821 15.0937 519.87 17.7396C520.742 18.57 521.671 19.3385 522.65 20.0396C527.395 24.0976 531.708 28.6351 535.52 33.5796C537.49 36.2496 540.18 38.0096 542.19 40.5096C542.85 41.3096 543.06 41.9096 541.69 42.9896M538.29 42.8096C537.81 41.5696 536.71 40.9696 535.83 40.2496C533.27 38.1596 531.5 35.2796 528.75 33.4096C528.39 33.1696 528.23 32.3996 527.6 33.0296C524.32 36.3796 520.3 38.8696 516.8 42.0696C524.02 42.2696 531.08 43.2596 538.3 42.8096M497.8 41.7896C502.59 42.1496 507.37 42.5396 512.16 42.8596C512.92 42.9096 513.36 42.8196 513.49 41.5896C513.777 39.7433 514.784 38.0859 516.29 36.9796C519.25 34.8296 520.79 31.0796 524.63 29.9596C525.76 29.6296 524.69 28.6296 524.53 28.5096C522.54 27.0896 521.29 24.9496 519.39 23.4496C518.8 22.9796 518.53 22.6996 517.89 23.4096C512.34 29.5396 505.69 34.4796 499.48 39.8696C498.89 40.3696 498.64 41.2296 497.63 41.2696L497.8 41.7796M480.45 41.3196C480.87 42.1496 482.27 41.5096 483.22 41.6196C483.83 41.6596 484.45 41.6696 485.06 41.6396C487.108 41.5245 489.162 41.6791 491.17 42.0996C493.37 42.4596 494.47 41.3396 495.53 39.7596C497.372 36.8862 499.607 34.2843 502.17 32.0296C505.46 29.2196 507.97 25.5596 511.57 23.0496C511.93 22.8096 512.22 22.4696 512.59 22.2496C516.33 19.9896 516.36 18.7496 512.75 16.0796C512.464 15.8615 512.203 15.6134 511.97 15.3396C510.17 13.2796 510.25 13.3496 508.27 15.4396C504.75 19.1593 501.052 22.7068 497.19 26.0696C492.099 30.5236 487.078 35.0575 482.13 39.6696C481.55 40.2096 479.82 40.0696 480.45 41.3196ZM455.73 42.3996C461.89 42.1696 468.07 42.8196 474.24 41.7996C475.043 41.7065 475.817 41.4445 476.512 41.0309C477.206 40.6172 477.806 40.0613 478.27 39.3996C481.562 34.8285 485.423 30.6952 489.76 27.0996C491.75 25.4796 493.18 23.0796 495.13 21.2996C497.93 18.7596 500.45 15.8996 503.93 14.1596C505.43 13.4096 505.63 11.4296 507.08 10.5196C507.48 10.2796 507.05 9.91961 506.85 9.63961C505.75 8.14961 504.18 7.08961 503.12 5.52961C502.52 4.63961 499.61 4.90961 498.78 5.82961C492.57 12.7596 485.55 18.8696 478.76 25.2096C473.85 29.8096 468.74 34.1896 463.8 38.7496C462.2 40.2296 460.54 42.7696 457.38 41.3996C468.605 28.266 480.824 16.0164 493.93 4.75961C490.07 4.93961 486.33 3.84961 482.57 4.94961C482.301 5.05854 482.007 5.09308 481.72 5.04961C478.89 4.16961 477.59 6.21961 475.97 7.84961C471.41 12.4496 466.67 16.8296 461.99 21.2796C458.67 24.4396 455.15 27.3896 451.85 30.5596C448.89 33.3996 445.82 36.1396 442.79 38.9096C441.99 39.6496 440.85 39.9996 440.56 41.5496C445.69 41.1396 450.65 42.5696 455.73 42.3896M437.76 38.6596C438.61 39.0996 438.93 38.9296 439.28 38.3496C440.689 36.2823 442.326 34.3803 444.16 32.6796C445 31.7996 444.63 31.4096 443.9 30.8496C438.2 26.4896 433.27 21.3096 428.13 16.3496C424.89 13.2196 421.81 9.89961 418.61 6.70961C418.166 6.20252 417.621 5.79381 417.009 5.50968C416.398 5.22554 415.734 5.07225 415.06 5.05961C412.47 5.02961 409.89 4.82961 407.31 4.72961C406.853 4.65541 406.386 4.68137 405.941 4.8057C405.495 4.93002 405.082 5.14973 404.73 5.44961C406.01 6.59961 407.22 7.81961 408.55 8.85961C411.72 11.4145 414.552 14.3614 416.98 17.6296C417.76 18.6396 418.9 19.0796 419.81 19.8996C424.474 24.1482 428.841 28.7123 432.88 33.5596C434.41 35.3796 435.51 37.4796 437.76 38.6596ZM422.59 40.6296C422.752 40.8708 422.971 41.0682 423.227 41.2043C423.483 41.3404 423.77 41.4109 424.06 41.4096H434.79C430.76 37.5696 426.97 34.1296 423.4 30.4896C419.36 26.3796 415.47 22.1096 411.56 17.8596C407.86 13.8096 404.21 9.70961 400.56 5.61961C400.419 5.46081 400.247 5.33271 400.054 5.24326C399.861 5.15381 399.652 5.10491 399.44 5.09961C395.38 4.80961 391.31 4.54961 386.94 4.25961C389.05 6.70243 391.413 8.91478 393.99 10.8596C396.209 12.8723 398.219 15.1036 399.99 17.5196C400.8 18.3196 401.69 19.0196 402.63 19.6496C407.522 23.872 411.981 28.5719 415.94 33.6796C417.91 36.3696 420.74 37.9996 422.6 40.6396M403.71 40.7796C404.31 41.6296 405.18 41.5296 406.05 41.5296C409.57 41.5296 413.05 40.7996 416.59 41.2296L417.11 40.5196C413.53 37.1596 409.85 33.8996 406.41 30.4096C402.37 26.3296 398.47 22.1096 394.65 17.8296C391.31 14.0996 387.65 10.6396 384.58 6.73961C382.96 4.67961 381.48 4.76961 379.49 4.68961C375.92 4.53961 372.35 4.18961 368.63 4.88961C370.18 7.18961 372.45 8.69961 374.48 10.4196C376.918 12.6149 379.135 15.0431 381.1 17.6696C381.929 18.4495 382.822 19.1587 383.77 19.7896C388.609 23.9622 393.015 28.6124 396.92 33.6696C398.94 36.4096 401.84 38.0696 403.72 40.7696M383.92 41.2096C388.56 41.1896 393.22 41.2096 398.09 41.2096C394.98 38.1096 391.9 35.1796 388.97 32.1096C384.459 27.3906 380.002 22.6203 375.6 17.7996C371.88 13.7596 368.24 9.64961 364.57 5.56961C364.369 5.36191 364.126 5.20058 363.856 5.09693C363.587 4.99329 363.298 4.94983 363.01 4.96961C360.21 4.94961 357.42 4.96961 354.12 4.96961C355.051 6.44216 356.171 7.78686 357.45 8.96961C360.175 11.5882 362.518 14.5776 364.41 17.8496C365.03 18.8796 366.11 19.3496 366.87 20.1996C370.816 24.3689 374.318 28.9367 377.32 33.8296C378.78 36.3496 380.96 38.0896 382.48 40.4296C382.624 40.6777 382.834 40.881 383.086 41.0169C383.339 41.1528 383.624 41.2161 383.91 41.1996M364.55 40.3996C365.05 40.8196 365.37 41.3696 366.12 41.3296C369.97 41.0696 373.82 41.0996 377.66 41.4196C374.53 37.5596 371.64 34.3196 369.13 30.8196C365.68 25.9796 361.79 21.4996 358.52 16.4996C356.08 12.7796 353.06 9.34961 350.4 5.71961C350.234 5.48718 350.01 5.30217 349.75 5.1829C349.491 5.06363 349.205 5.01423 348.92 5.03961H335.62C335.58 5.37961 335.49 5.56961 335.55 5.63961C339.28 9.81961 342.88 14.1396 346.5 18.3996C350.24 22.7996 354.22 26.9996 357.74 31.5996C359.99 34.5496 361.64 37.9496 364.55 40.3996ZM345.87 40.4996C346.075 40.7471 346.339 40.939 346.638 41.0578C346.937 41.1766 347.261 41.2185 347.58 41.1796C351.46 41.1596 355.34 41.1696 359.54 41.1696C356.54 37.6296 353.5 34.4096 350.89 30.8796C347.31 26.0296 343.25 21.5596 339.83 16.5496C337.29 12.8096 334.17 9.37961 331.33 5.78961C331.192 5.58922 331.009 5.42415 330.795 5.30775C330.581 5.19135 330.343 5.1269 330.1 5.11961C323.741 4.64464 317.353 4.68478 311 5.23961C312.57 6.63961 313.82 7.85961 315.19 8.93961C318.268 11.4708 321.025 14.3689 323.4 17.5696C324.23 18.6496 325.45 19.0896 326.4 19.9696C330.97 24.2096 335.55 28.5296 339.22 33.5296C341.19 36.2096 343.9 37.9596 345.87 40.4996ZM340.32 40.9996C337.38 38.4096 335.09 35.4296 332.19 33.0296C331.49 32.4496 331.29 33.0796 331.02 33.3296C327.982 36.1239 324.74 38.6877 321.32 40.9996H340.32ZM303.04 41.1196C307.34 41.1196 311.62 41.0896 315.91 41.1396C316.98 41.1396 317.38 40.6596 318.01 39.8196C320.88 35.9896 323.83 32.1696 328.32 30.0196C329.42 29.4896 328.5 28.7596 328.34 28.5996C326.58 26.7596 324.7 25.0296 322.9 23.2296C322.42 22.7596 322.16 22.8296 321.72 23.2996C316.13 29.4996 309.42 34.4696 303.17 39.9596C303.08 40.0596 303.01 40.1796 302.95 40.2996L303.05 41.1196M298.27 40.6996C298.6 40.6596 298.93 40.1996 299.17 39.8596C301.517 36.5874 304.217 33.5827 307.22 30.8996C310.01 28.2996 312.52 25.3696 315.47 22.8696C316.45 22.0396 317.91 22.0596 318.62 20.8496C319.2 19.8696 319.48 19.1796 318.5 18.0996C317.04 16.4996 315.23 15.2196 314.1 13.1396C305.01 23.2896 294.42 31.6596 284.36 40.8096C288.98 41.2996 293.65 41.2596 298.26 40.7096M266.41 41.2196C268.49 41.1896 270.58 41.2196 272.66 41.2196V41.6196C274.32 41.6196 275.98 41.5096 277.62 41.6396C279.68 41.8096 280.99 40.8096 282.12 39.2896C285.42 34.8196 288.89 30.5096 293.49 27.2196C294.33 26.6196 294.79 25.5296 295.51 24.7696C299.27 20.8396 302.94 16.8396 307.76 14.0996C309.13 13.3296 309.44 11.4996 310.74 10.5696C310.796 10.4885 310.83 10.3944 310.839 10.2962C310.848 10.1981 310.831 10.0993 310.79 10.0096C308.95 7.97961 307.43 5.52961 304.8 4.44961C303.69 3.98961 303.01 5.38961 302.27 6.12961C298.53 9.83961 294.97 13.7596 291.03 17.2396C286.49 21.2496 282.23 25.5596 277.56 29.4396C273.999 32.2252 270.72 35.3535 267.77 38.7796C267.24 39.4396 266.23 38.9496 265.89 40.1496C265.63 41.0696 265.21 41.2496 266.41 41.2296M255.66 40.7996C256.306 40.739 256.958 40.7558 257.6 40.8496C260.77 41.4796 262.74 40.0396 264.64 37.5896C268.79 32.2496 273.21 27.1196 278.7 23.0096C279.512 22.2157 280.246 21.345 280.89 20.4096C285.256 15.7416 289.873 11.315 294.72 7.14961C295.77 6.19961 297.74 6.31961 297.99 4.31961C294.986 4.0342 291.967 3.92068 288.95 3.97961C285.31 4.22961 281.99 5.15961 279.27 8.21961C275.12 12.8696 270.3 16.9196 265.79 21.2496C262.49 24.4096 258.99 27.3496 255.66 30.4996C252.63 33.3596 249.56 36.2096 246.43 38.9596C245.569 39.6851 244.821 40.5344 244.21 41.4796C248.02 40.2196 251.88 40.9596 255.67 40.7796M241.32 38.5296C242.29 38.9996 242.69 38.9896 243.16 38.2096C244.501 36.1831 246.086 34.3292 247.88 32.6896C248.73 31.8396 248.36 31.4496 247.65 30.8796C241.229 25.5225 235.122 19.7997 229.36 13.7396C226.56 10.8796 223.81 7.96961 220.78 5.33961C220.599 5.13229 220.379 4.96347 220.131 4.84321C219.884 4.72295 219.615 4.65371 219.34 4.63961C215.77 4.65961 212.2 4.64961 208.63 4.64961L208.46 5.24961C209.795 6.72207 211.257 8.07397 212.83 9.28961C215.825 11.8143 218.525 14.6691 220.88 17.7996C221.698 18.5859 222.581 19.3018 223.52 19.9396C228.196 24.1679 232.573 28.7155 236.62 33.5496C238.1 35.2996 239.03 37.4296 241.32 38.5296ZM225.88 40.1496C226.129 40.4036 226.435 40.5949 226.772 40.7079C227.109 40.8209 227.468 40.8523 227.82 40.7996C230.47 40.8996 233.13 40.4596 235.77 41.0996C236.14 41.1996 236.71 41.2496 236.87 40.7196C237.04 40.1196 236.44 39.8896 236.1 39.5496C233.13 36.5696 230.11 33.6296 227.2 30.5896C223.193 26.4007 219.233 22.1671 215.32 17.8896C211.605 13.8475 207.928 9.77066 204.29 5.65961C204.1 5.44868 203.864 5.28403 203.601 5.1783C203.337 5.07257 203.053 5.02854 202.77 5.04961C199.12 5.01961 195.47 5.02961 191.39 5.02961C193.002 6.89005 194.805 8.57597 196.77 10.0596C199.417 12.4298 201.837 15.041 204 17.8596C204.884 18.6808 205.826 19.4361 206.82 20.1196C211.49 24.1438 215.745 28.6262 219.52 33.4996C221.42 36.0496 223.92 37.7996 225.88 40.1496ZM206.43 40.1296C206.576 40.3325 206.768 40.4975 206.991 40.6106C207.214 40.7237 207.46 40.7817 207.71 40.7796H220.21C218.413 38.649 216.49 36.6287 214.45 34.7296C211.35 32.1896 209.01 28.9796 206.19 26.1896C203.63 23.6244 201.165 20.966 198.8 18.2196C195.12 13.9796 191.18 9.94961 187.44 5.75961C187.242 5.51659 186.992 5.32182 186.708 5.19013C186.424 5.05843 186.113 4.99328 185.8 4.99961C181.06 4.95961 176.34 4.59961 171.11 4.16961C172.558 5.93982 174.202 7.54006 176.01 8.93961C179.168 11.4818 181.976 14.4307 184.36 17.7096C185.09 18.6796 186.21 19.0096 187.06 19.7896C191.866 23.993 196.269 28.6366 200.21 33.6596C202.06 36.1396 204.51 37.8296 206.42 40.1396M185.54 40.1396C185.712 40.3663 185.937 40.5476 186.195 40.6678C186.452 40.788 186.736 40.8436 187.02 40.8296C191.68 41.1296 196.34 41.1796 201.01 40.9996C199.136 38.7992 197.132 36.7122 195.01 34.7496C191.91 32.1896 189.57 28.9796 186.74 26.1896C184.173 23.6276 181.705 20.969 179.34 18.2196C175.66 13.9796 171.72 9.94961 167.98 5.74961C167.697 5.43865 167.345 5.19806 166.953 5.04702C166.561 4.89598 166.138 4.83865 165.72 4.87961C163.02 4.85961 160.3 4.87961 157.03 4.87961C158.51 6.51961 159.56 7.86961 160.79 9.01961C163.492 11.6616 165.826 14.6551 167.73 17.9196C168.36 18.9396 169.43 19.3996 170.2 20.2596C174.072 24.3904 177.529 28.8921 180.52 33.6996C182.045 35.9579 183.722 38.1096 185.54 40.1396ZM168.88 41.0796C172.58 40.6396 176.33 41.7496 180.18 40.6196C178.706 38.4864 177.107 36.4428 175.39 34.4996C172.83 31.8996 170.99 28.7796 168.72 25.9796C166 22.6396 163.32 19.2296 160.94 15.6496C158.65 12.2396 155.87 9.19961 153.66 5.74961C153.51 5.42614 153.272 5.15144 152.973 4.95692C152.674 4.76239 152.327 4.6559 151.97 4.64961H138.03C139.69 6.79545 141.545 8.78384 143.57 10.5896C145.78 12.7496 147.27 15.4696 149.22 17.8096C150.85 19.7596 152.81 21.4596 154.5 23.3996C157.498 26.5804 160.168 30.0545 162.47 33.7696C163.95 36.3696 166.3 38.0196 167.87 40.3996C168.1 40.7596 168.38 41.1396 168.88 41.0796ZM148.91 40.1096C150.11 41.3396 151.97 41.0396 153.51 41.3796C156.52 42.0296 159.61 41.5696 162.97 41.4396C161.246 39.0589 159.376 36.7879 157.37 34.6396C154.71 32.1096 152.93 28.9596 150.59 26.2196C148.4 23.6596 146.31 21.0196 144.34 18.2596C141.24 13.9196 137.83 9.80961 134.58 5.55961C134.388 5.3046 134.136 5.10091 133.846 4.96659C133.557 4.83228 133.239 4.77148 132.92 4.78961H115.22C115.05 4.78961 114.88 4.97961 114.6 5.13961C116.08 7.28961 118.22 8.63961 120.07 10.2696C122.559 12.6095 124.869 15.1332 126.98 17.8196C127.87 18.6396 128.81 19.3896 129.79 20.0796C134.463 24.1203 138.73 28.6083 142.53 33.4796C144.43 35.9996 146.77 37.9196 148.91 40.1096ZM130.88 40.8596C131.58 40.3596 132.98 40.7596 134.06 40.7596H143.55C140.28 38.0696 138.19 34.9296 135 32.7196C131.676 35.8305 128.173 38.7455 124.51 41.4496C126.67 41.4096 128.81 42.3696 130.88 40.8596ZM118.59 41.5396C119.145 41.6415 119.719 41.5452 120.211 41.2674C120.702 40.9896 121.081 40.548 121.28 40.0196C122.067 38.2671 123.297 36.7504 124.85 35.6196C126.72 34.3696 127.68 32.0996 129.73 30.9496C130.53 30.4996 131.16 29.7196 132.76 30.1896C130.619 27.4975 128.239 25.0041 125.65 22.7396C119.72 29.2896 112.68 34.5896 105.65 40.6696L118.59 41.5396ZM101.48 40.7096C101.693 40.6818 101.896 40.6001 102.069 40.4725C102.242 40.3448 102.38 40.1752 102.47 39.9796C104.805 36.6007 107.56 33.5327 110.67 30.8496C113.21 28.5296 115.37 25.7096 118.12 23.5196C118.905 22.7974 119.808 22.2156 120.79 21.7996C122.7 21.1096 122.71 19.5896 121.5 17.8996C120.28 16.1796 118.3 15.1396 117.48 13.0896C108.68 23.0896 98.16 31.1896 88.68 40.4696C92.93 40.8996 97.21 40.9796 101.48 40.7096ZM69.28 40.1596C69.48 41.0196 69.84 40.7296 70.14 40.7396C72.3 40.7796 74.46 40.7596 76.63 40.7596C81.1 41.1896 84.99 40.9796 87.83 36.3896C90.15 32.6196 94.03 29.9496 97.13 26.7496C100.733 22.778 104.606 19.0592 108.72 15.6196C110.619 14.3182 112.323 12.7524 113.78 10.9696C114.2 10.3896 114.26 10.1596 113.84 9.56961C112.77 8.04961 111.14 7.06961 110.17 5.41961C109.62 4.47961 106.68 5.04961 105.71 6.01961C102.14 9.61961 98.62 13.2596 94.96 16.7596C90.77 20.7596 86.53 24.7196 82.17 28.5396C78.41 31.8396 74.65 35.1396 71.13 38.6896C70.7889 39.0547 70.3578 39.3237 69.88 39.4696C69.58 39.5596 69.03 39.1396 69.28 40.1696M49.32 40.8496C51.9 40.8496 54.49 40.7896 57.08 40.7696C58.6584 40.6576 60.2431 40.6676 61.82 40.7996C64.56 41.1996 66.17 39.8996 67.75 37.8996C72.05 32.3996 76.58 27.1096 82.24 22.8996C82.9343 22.1888 83.5572 21.4118 84.1 20.5796C88.5471 15.7997 93.2649 11.2789 98.23 7.03961C99.11 6.23961 100.64 6.37961 101.18 4.73961C96.4 4.73961 91.8 4.76961 87.21 4.71961C86.7484 4.73891 86.2968 4.86117 85.8885 5.07744C85.4802 5.29372 85.1254 5.59854 84.85 5.96961C80.71 10.1796 76.63 14.4296 72.15 18.3396C68.55 21.4996 65.22 24.9996 61.6 28.1796C57.63 31.6596 53.62 35.0996 49.98 38.9296C49.7251 39.1792 49.4011 39.3464 49.05 39.4096C48.49 39.5096 48.34 39.6596 48.35 40.2896C48.36 41.2296 48.97 40.8396 49.33 40.8396M44.73 38.5596C45.57 38.9396 45.97 39.0996 46.43 38.3396C47.8275 36.2697 49.4582 34.3672 51.29 32.6696C51.97 31.9496 51.87 31.5496 51.15 30.9896C45.46 26.5996 40.47 21.4496 35.35 16.4696C31.56 12.7996 28.05 8.85961 24.15 5.30961C23.8659 5.00486 23.5223 4.76156 23.1405 4.59473C22.7586 4.4279 22.3467 4.34108 21.93 4.33961H11C12.3089 6.02686 13.8355 7.5333 15.54 8.81961C18.7716 11.3875 21.6439 14.3775 24.08 17.7096C24.81 18.6696 25.93 19.0096 26.78 19.7896C31.4767 24.1059 35.8955 28.7152 40.01 33.5896C41.49 35.3396 42.41 37.4996 44.73 38.5496M30.07 41.0196C30.73 41.9996 32.01 41.7596 32.88 41.4996C35.37 40.7696 37.86 41.3196 40.47 41.1196C40.5 40.2496 39.74 39.8896 39.24 39.3696C34.79 34.7196 30.37 30.0196 25.88 25.4396C19.97 19.4096 14.53 12.9596 8.72002 6.83961C6.72002 4.75961 5.02001 4.58961 2.70001 4.63961C-0.0199878 4.68961 -2.72999 4.63961 -5.62999 4.63961C-4.06916 6.44383 -2.32662 8.08248 -0.429977 9.52961C2.47825 12.0465 5.10676 14.8694 7.41002 17.9496C7.91002 18.5896 8.82001 18.8996 9.45001 19.4596C14.5461 23.7715 19.1598 28.6232 23.21 33.9296C25.22 36.6996 28.2 38.2696 30.07 41.0296M10.21 40.0996C10.4381 40.3264 10.716 40.4969 11.0215 40.5976C11.327 40.6982 11.6518 40.7263 11.97 40.6796C16.02 40.5796 20.07 40.7796 24.09 41.2596C21.76 38.8296 19.85 36.5496 17.65 34.6096C14.55 31.8796 12.11 28.5496 9.16002 25.7096C6.68002 23.3196 4.46001 20.7196 2.14001 18.1796C-1.40999 14.2796 -5.17998 10.5396 -8.58998 6.53961C-10.22 4.60961 -11.75 4.37961 -13.82 4.15961C-17.42 3.78961 -20.98 4.30961 -24.89 4.30961C-23.5645 6.03895 -22.0065 7.57683 -20.26 8.87961C-17.0934 11.4214 -14.2729 14.3664 -11.87 17.6396C-11.09 18.6496 -9.91999 19.0396 -9.01999 19.8696C-4.27647 24.0433 0.0750232 28.6425 3.98001 33.6096C5.83001 36.0896 8.25002 37.8296 10.21 40.0896M-8.06998 41.5196C-4.44998 39.8796 -0.699985 40.8496 3.00002 40.7796C3.31123 40.8352 3.63175 40.804 3.92636 40.6893C4.22097 40.5746 4.47827 40.381 4.67001 40.1296C1.20001 36.8296 -2.45999 33.7996 -5.57999 30.2996C-9.67999 25.7196 -14.14 21.4996 -18.05 16.7196C-20.65 13.5296 -24.01 10.8396 -26.47 7.54961C-30.2 2.54961 -35.3 3.66961 -40.53 3.31961C-38.88 5.19961 -37.55 6.92961 -35.99 8.41961C-33.026 11.2981 -30.4387 14.5406 -28.29 18.0696C-27.59 19.1696 -26.35 19.9396 -25.44 20.9296C-21.757 24.751 -18.5196 28.978 -15.79 33.5296C-14.25 36.2396 -11.89 38.1296 -10.29 40.6596C-10.0914 41.0518 -9.7548 41.3566 -9.34492 41.5154C-8.93505 41.6742 -8.4809 41.6757 -8.06998 41.5196ZM-28.09 40.7096C-27.59 41.5096 -26.79 41.4396 -26 41.5096C-22.55 41.8196 -19.16 40.8396 -15.28 41.3396C-18.13 37.8596 -20.88 34.8896 -23.18 31.6096C-26.76 26.5496 -30.84 21.8796 -34.27 16.6896C-36.4546 13.3226 -38.9093 10.1387 -41.61 7.16961C-41.9873 6.66097 -42.3281 6.12631 -42.63 5.56961C-43.46 4.38961 -44.29 3.28961 -46.13 3.33961C-50.27 3.43961 -54.44 3.09961 -58.67 4.15961C-56.7546 6.55012 -54.6656 8.79621 -52.42 10.8796C-50.34 12.8796 -48.98 15.4196 -47.15 17.6096C-45.65 19.4096 -43.92 21.0096 -42.32 22.7096C-39.0588 26.0449 -36.1809 29.7345 -33.74 33.7096C-32.17 36.4096 -29.7 38.1696 -28.09 40.7096ZM-47.15 40.3296C-46.9124 40.601 -46.6097 40.8076 -46.2704 40.9301C-45.931 41.0525 -45.5662 41.0868 -45.21 41.0296C-41.56 41.0096 -37.91 41.0196 -34.26 41.0196L-34.08 40.3496C-36.82 37.0896 -39.73 33.9496 -42.27 30.5396C-45.77 25.8096 -49.7 21.4196 -53.08 16.5796C-55.44 13.2096 -58.43 10.1196 -60.8 6.74961C-62.53 4.27961 -64.32 3.98961 -66.8 4.09961C-72.12 4.32961 -77.43 3.15961 -82.84 4.09961C-80.6727 6.43543 -78.3328 8.60488 -75.84 10.5896C-73.4516 12.7363 -71.2933 15.1258 -69.4 17.7196C-68.67 18.6796 -67.55 19.0296 -66.7 19.7996C-61.8211 24.0338 -57.3727 28.74 -53.42 33.8496C-51.56 36.3596 -48.96 37.9196 -47.15 40.3296ZM-52.79 40.5996C-55.92 38.1596 -57.91 35.2496 -60.66 33.0596C-61.61 32.2996 -61.9 33.2896 -62.14 33.5396C-64.91 36.3296 -68.16 38.4896 -71.28 41.0596C-65.32 40.4196 -59.35 41.8296 -52.78 40.5996M-77.2 40.9996C-76.7372 41.0585 -76.2675 40.9752 -75.8531 40.7609C-75.4388 40.5466 -75.0994 40.2113 -74.88 39.7996C-72.05 35.9796 -69.07 32.1896 -64.62 30.0196C-63.49 29.4596 -64.37 28.7896 -64.57 28.5696C-66.32 26.7496 -68.17 25.0396 -69.97 23.2496C-70.43 22.7896 -70.67 22.7796 -71.13 23.2796C-76.85 29.5296 -83.65 34.5996 -90.29 40.4296C-85.65 40.6296 -81.43 40.7996 -77.21 41.0096M-94.91 40.6696C-94.7359 40.6611 -94.5657 40.6156 -94.4106 40.5363C-94.2554 40.457 -94.1189 40.3457 -94.01 40.2096C-91.63 36.4696 -88.43 33.5096 -85.21 30.4696C-82.91 28.3096 -80.88 25.7696 -78.41 23.7296C-77.5314 22.8974 -76.5079 22.2331 -75.39 21.7696C-73.61 21.1296 -73.59 19.4496 -74.65 17.9496C-75.86 16.2296 -77.92 15.2496 -78.73 12.9896C-87.6 23.1796 -98.26 31.2396 -108.22 40.6796C-103.45 41.2796 -99.18 40.6496 -94.92 40.6796M-126.95 40.2296C-126.53 41.4696 -125.71 39.9296 -125.21 40.7496C-121.39 40.7496 -117.57 40.6896 -113.76 40.7796C-113.162 40.8264 -112.563 40.7074 -112.028 40.4357C-111.494 40.164 -111.045 39.7502 -110.73 39.2396C-107.46 34.7396 -103.93 30.4696 -99.34 27.1796C-98.64 26.4796 -98.02 25.6996 -97.49 24.8596C-94.3697 21.2917 -90.884 18.0607 -87.09 15.2196C-85.5025 14.1112 -84.0728 12.7925 -82.84 11.2996C-82.09 10.3296 -81.88 10.0196 -82.79 9.17961C-84.49 7.60961 -85.69 5.59961 -87.47 4.08961C-88.14 3.52961 -88.38 3.60961 -88.95 4.22961C-94.45 10.2896 -100.55 15.7496 -106.45 21.3996C-112.59 27.2496 -119.33 32.4396 -125.11 38.6596C-125.31 38.8596 -125.61 38.9896 -125.74 39.2196C-126.02 39.7196 -127.37 38.9396 -126.94 40.2196M-145.98 38.5796C-146.197 38.7649 -146.404 38.9618 -146.6 39.1696C-146.93 39.5996 -147.97 39.1396 -147.85 39.9096C-147.68 41.0396 -146.63 40.5796 -145.95 40.5596C-142.01 40.4596 -138.18 41.5296 -134.25 41.6096C-133.51 41.66 -132.769 41.5308 -132.09 41.2331C-131.411 40.9353 -130.814 40.4779 -130.35 39.8996C-127.372 36.4535 -124.402 33.0001 -121.44 29.5396C-119.265 27.1774 -116.867 25.0308 -114.28 23.1296C-113.11 22.2096 -112.56 20.8796 -111.58 19.8296C-107.34 15.3596 -102.84 11.1296 -98.1 7.18961C-96.6 5.93961 -94.7 5.18961 -93.58 3.22961C-96.46 2.17961 -99 3.94961 -101.62 3.42961C-106.95 2.33961 -110.55 4.42961 -114.02 8.55961C-117.95 13.2296 -122.92 17.0696 -127.33 21.3496C-133.43 27.2396 -140.18 32.4096 -145.99 38.5796M-142.17 27.8796C-141.55 28.0996 -141.28 28.2796 -140.75 27.8096C-138.807 26.1353 -136.844 24.4851 -134.86 22.8596C-134.25 22.3596 -134.34 21.9796 -134.91 21.5096C-141.01 16.3696 -145.91 10.1096 -151.32 4.31961C-151.597 4.05263 -151.934 3.85676 -152.304 3.74878C-152.673 3.6408 -153.063 3.62393 -153.44 3.69961C-157.25 3.69961 -161.06 3.75961 -164.87 3.77961C-166.202 3.91952 -167.548 3.77639 -168.82 3.35961C-168.263 4.29527 -167.47 5.06784 -166.52 5.59961C-163.619 7.52918 -161.035 9.89737 -158.86 12.6196C-158.057 13.3152 -157.186 13.9282 -156.26 14.4496C-152.666 17.3047 -149.333 20.4739 -146.3 23.9196C-145 25.3396 -144.2 27.1496 -142.16 27.8796" fill="#008B89"/>
</g>
</svg>
