<svg width="393" height="48" viewBox="0 0 393 48" fill="none" xmlns="http://www.w3.org/2000/svg">
<mask id="mask0_1107_358" style="mask-type:luminance" maskUnits="userSpaceOnUse" x="0" y="0" width="393" height="48">
<path d="M0 0H393V48H0V0Z" fill="white"/>
</mask>
<g mask="url(#mask0_1107_358)">
<mask id="mask1_1107_358" style="mask-type:luminance" maskUnits="userSpaceOnUse" x="-154" y="0" width="547" height="49">
<path d="M-154 0H393V49H-154V0Z" fill="white"/>
</mask>
<g mask="url(#mask1_1107_358)">
<mask id="mask2_1107_358" style="mask-type:luminance" maskUnits="userSpaceOnUse" x="-154" y="0" width="547" height="49">
<path d="M393 0V49H-154V0H393Z" fill="white"/>
</mask>
<g mask="url(#mask2_1107_358)">
<path d="M-299.25 30.8696C-304.89 26.5096 -309.81 21.3696 -314.94 16.4696C-319 12.5696 -322.8 8.42961 -326.76 4.43961C-327.414 3.88686 -328.117 3.39483 -328.86 2.96961V-0.900391C-266.22 -0.700391 -203.57 -0.600391 -140.93 -0.200391C-127.76 -0.120391 -114.6 0.579609 -101.43 0.799609C-97.91 0.849609 -94.25 0.349609 -90.85 0.549609C-84.23 0.949609 -77.63 -0.320391 -71.11 0.469609C-63.93 1.33961 -56.8 0.669609 -49.69 0.429609C-22.72 -0.480391 4.25 0.0996093 31.22 0.139609C41.22 0.159609 51.22 0.239609 61.22 0.279609C67.16 0.309609 73.12 0.529609 79.06 0.359609C95.03 -0.100391 111 0.0896094 126.98 -0.000390649C140.58 -0.0803906 154.2 -0.300391 167.79 -0.260391C179.23 -0.220391 190.68 -0.280391 202.12 -0.160391C208.6 -0.0903906 215.07 -0.240391 221.55 -0.260391C263.82 -0.380391 306.08 0.239609 348.35 -0.130391C358.93 -0.230391 369.52 -0.310391 380.1 -0.370391C382.76 -0.390391 385.43 -0.120391 388.08 -0.100391C397.85 -0.0203907 407.62 -0.140391 417.39 -0.200391C421.21 -0.240391 425.03 -0.440391 428.84 -0.300391H428.95L428.67 5.27961L428.33 5.30961C428.41 5.50961 428.52 5.67961 428.63 5.84961L428.39 10.6496C428.256 10.5165 428.129 10.3763 428.01 10.2296C426.75 8.68961 425.24 7.35961 424 5.80961C423.823 5.59539 423.594 5.42977 423.335 5.32831C423.076 5.22685 422.796 5.19289 422.52 5.22961C418.87 5.17961 415.22 5.19961 411.57 5.19961L411.27 5.69961C417.48 10.2296 422.08 16.4196 427.88 21.5896C427.796 23.7558 427.727 25.9225 427.67 28.0896C424.21 24.3096 420.62 20.6596 417.27 16.7696C414.48 13.5496 411.31 10.5896 408.52 7.35961C406.56 5.07961 404.15 4.95961 401.66 4.60961C399.81 4.34961 397.94 4.30961 395.66 4.13961C397.07 6.11961 398.66 7.95961 400.43 9.63961C402.859 12.1474 404.984 14.9334 406.76 17.9396C407.13 18.3696 407.54 18.7696 407.98 19.1296C412.72 24.1996 417.23 29.4496 420.52 35.6196C421.159 36.7268 422.012 37.6956 423.03 38.4696C423.3 38.6896 423.75 38.8296 423.83 39.0896C424.47 41.1896 425.93 41.7696 427.53 42.0396C427.57 44.4796 427.63 46.9296 427.73 49.3796L-328.85 47.5296V40.7496L-326.93 40.5796C-327.398 39.7687 -328.061 39.0879 -328.86 38.5996V31.7296C-327.23 32.9696 -326.56 34.9696 -325.21 36.3896C-322.6 39.1396 -319.66 41.2496 -315.43 40.4896C-313.661 40.3269 -311.882 40.3102 -310.11 40.4396L-328.86 20.9996V14.9896C-324.01 19.4796 -318.99 23.7896 -314.56 28.6996C-312.03 31.4996 -309.6 34.3696 -307.33 37.3796C-306.72 38.1996 -305.69 38.1596 -305.03 38.8696C-304.51 39.4296 -304.1 38.7196 -303.88 38.3696C-302.486 36.2885 -300.84 34.3874 -298.98 32.7096C-298.11 31.8396 -298.58 31.3996 -299.26 30.8696M-287.82 3.10961C-288.92 1.77961 -292.3 1.83961 -293.52 3.25961C-293.92 3.71961 -294.44 3.58961 -294.92 3.59961H-300.89L-301.15 4.04961C-297.45 5.80961 -295.41 9.39961 -292.15 11.6996C-289.815 13.237 -287.95 15.3895 -286.76 17.9196C-286.43 18.6796 -285.75 19.1796 -284.94 18.2696L-284.64 17.9696C-283.14 16.4396 -280.76 15.0896 -280.39 13.3196C-280.05 11.7396 -282.67 10.2596 -283.79 8.59961C-285.04 6.69703 -286.388 4.86118 -287.83 3.09961M-268.63 3.07961C-268.89 2.53961 -269.65 2.67961 -270.21 2.64961C-274.44 2.35961 -278.66 2.14961 -283.07 2.24961C-281.4 5.46961 -277.77 6.74961 -276.42 10.5196C-274.52 7.49961 -271.31 6.74961 -269.42 4.35961C-269.09 3.93961 -268.33 3.67961 -268.62 3.07961M-109.66 4.60961C-114.79 3.99961 -119.92 4.80961 -125.33 4.43961C-124.33 5.93961 -122.96 6.47961 -121.86 7.29961C-119.985 8.82002 -118.287 10.5477 -116.8 12.4496C-116.1 13.2796 -115.13 13.4996 -114.36 14.1196C-110.593 17.1038 -107.111 20.4314 -103.96 24.0596C-102.68 25.5496 -101.64 27.1096 -99.78 27.9896C-99.5936 28.1323 -99.3601 28.1993 -99.1264 28.177C-98.8927 28.1548 -98.6761 28.0449 -98.52 27.8696C-96.57 26.1996 -94.62 24.5396 -92.63 22.9096C-92.02 22.4096 -92.07 22.0096 -92.62 21.5396C-98.41 16.5896 -103.22 10.7196 -108.29 5.09961C-108.669 4.77007 -109.158 4.59515 -109.66 4.60961ZM-86.6 9.66961C-87.4137 8.77502 -88.1248 7.79225 -88.72 6.73961C-89.0849 5.92753 -89.7001 5.25356 -90.4756 4.81631C-91.2512 4.37906 -92.1463 4.2015 -93.03 4.30961C-96.6 4.50961 -100.18 4.36961 -103.8 4.36961C-100 8.51961 -95.33 11.5796 -91.78 15.8096C-91.6 16.0296 -91.39 16.2396 -91.22 16.4596C-89.31 18.8796 -89.28 18.9096 -86.99 16.5296C-85.91 15.4096 -83.98 14.4996 -83.99 13.0996C-84.01 11.9396 -85.63 10.7796 -86.6 9.66961ZM-85.32 4.68961C-83.4346 5.79457 -81.8537 7.35135 -80.72 9.21961C-80.51 9.55961 -80.31 10.3596 -79.67 9.70961C-77.91 7.87961 -75.77 6.50961 -73.92 4.68961H-85.32ZM86.28 4.66961C81.52 5.01961 76.75 5.11961 71.98 4.94961C74.28 6.86961 76.5 8.87961 78.65 10.9696C83.07 15.2896 88.26 18.7996 92.3 23.5496C93.64 25.1196 94.47 27.1496 96.75 27.8496C97.32 28.0296 97.6 28.3496 98.15 27.8496C100.09 26.1696 102.05 24.5296 104.04 22.8996C104.66 22.3896 104.54 21.9996 104 21.5296C98.27 16.6196 93.52 10.7796 88.45 5.24961C88.1621 4.98501 87.8139 4.79477 87.4357 4.69543C87.0575 4.59608 86.6608 4.59066 86.28 4.67961M109.28 8.82961C109.121 8.67996 108.989 8.50406 108.89 8.30961C107.4 4.25961 104.3 3.63961 100.47 4.20961C98.1 4.55961 95.67 4.52961 93.31 4.66961C96.91 8.91961 101.67 11.7796 105.08 16.0696C105.3 16.3396 105.58 16.5796 105.78 16.8696C107.21 19.0296 107.25 19.0696 108.98 17.2196C110.28 15.8196 112.69 14.6896 112.64 13.0196C112.59 11.5996 110.48 10.2196 109.28 8.81961M111.81 4.90961C113.451 6.03108 114.84 7.48186 115.89 9.16961C116.09 9.48961 116.27 10.3396 116.93 9.73961C118.777 8.03681 120.706 6.4249 122.71 4.90961H111.81ZM282.5 4.20961H270.67C269.91 4.20961 268.95 3.92961 268.63 4.90961C268.29 5.95961 269.4 6.03961 269.95 6.43961C272.306 8.17094 274.401 10.232 276.17 12.5596C276.77 13.3596 277.74 13.4896 278.47 14.0696C282.25 17.0305 285.74 20.3455 288.89 23.9696C290.17 25.4696 291.15 27.1196 293.09 27.9396C293.63 28.1596 293.88 28.2996 294.34 27.8996C296.334 26.1877 298.344 24.4943 300.37 22.8196C301.01 22.2796 300.77 21.9596 300.25 21.4996C297.829 19.4113 295.547 17.1665 293.42 14.7796C290.62 11.5996 287.59 8.61961 284.8 5.43961C284.536 5.06939 284.19 4.76495 283.79 4.54991C283.389 4.33487 282.944 4.215 282.49 4.19961M305.99 9.29961C304.89 8.22961 304.34 6.81961 303.39 5.65961C303.179 5.33002 302.873 5.07171 302.513 4.91832C302.152 4.76493 301.754 4.72357 301.37 4.79961C299.12 5.15961 296.83 5.02961 294.64 4.40961C292.87 4.00961 290.93 4.32961 289 4.32961C292.7 8.29961 297.14 11.2896 300.66 15.2596C301.1 15.7296 301.52 16.2196 301.91 16.7296C303.51 18.9596 303.5 18.9696 305.53 16.9196L305.68 16.7596C306.78 15.4596 308.98 14.5296 308.94 13.0296C308.91 11.7596 307.14 10.4296 305.98 9.29961M307.75 4.87961C309.638 5.91603 311.197 7.46125 312.25 9.33961C312.49 9.71961 312.7 10.1396 313.21 9.71961C314.887 8.07719 316.761 6.64957 318.79 5.46961C319.03 5.35961 319.06 4.83961 319.24 4.38961C315.54 5.49961 311.83 4.26961 307.75 4.87961ZM408.65 42.0996H420.51C417.18 37.9996 413.91 34.3296 411.06 30.3696C407.7 25.7196 403.98 21.3396 400.77 16.5496C398.567 13.0845 396.035 9.83948 393.21 6.85961C392.59 6.22961 393.22 4.88961 391.85 4.80961C391.6 4.79961 391.3 4.40961 391.12 4.45961C386.76 5.95961 382.25 4.59961 377.32 5.21961C378.339 6.45357 379.428 7.62879 380.58 8.73961C383.6 11.3196 385.64 14.6796 388.1 17.7196C389.93 19.9696 392.25 21.8496 394.08 24.1396C396.59 27.2696 399.56 30.1896 401.36 33.6896C402.98 36.8296 406.23 38.4496 407.56 41.6296C407.79 42.1496 408.23 42.0896 408.64 42.0896M387.69 42.9796C393 42.4796 397.77 43.7796 402.49 41.8796C399.55 38.4696 396.43 35.2396 393.77 31.6596C390 26.5796 385.73 21.8796 382.15 16.6096C379.53 12.7596 376.26 9.27961 373.45 5.50961C373.08 5.00961 372.44 5.04961 371.86 4.98961C365.83 4.36961 359.82 5.08961 353.4 5.14961C355.127 7.06199 357.025 8.8126 359.07 10.3796C361.546 12.6311 363.821 15.0937 365.87 17.7396C366.742 18.5701 367.671 19.3386 368.65 20.0396C373.395 24.0976 377.708 28.6351 381.52 33.5796C383.49 36.2496 386.18 38.0096 388.19 40.5096C388.85 41.3096 389.06 41.9096 387.69 42.9896M384.29 42.8096C383.81 41.5696 382.71 40.9696 381.83 40.2496C379.27 38.1596 377.5 35.2796 374.75 33.4096C374.39 33.1596 374.23 32.3996 373.6 33.0296C370.31 36.3796 366.3 38.8696 362.8 42.0596C370.02 42.2596 377.08 43.2596 384.3 42.8096M343.8 41.7896C348.59 42.1496 353.37 42.5396 358.16 42.8596C358.92 42.9096 359.36 42.8196 359.49 41.5896C359.775 39.7397 360.782 38.0783 362.29 36.9696C365.25 34.8296 366.79 31.0696 370.63 29.9496C371.76 29.6296 370.69 28.6296 370.53 28.5096C368.54 27.0896 367.29 24.9496 365.39 23.4496C364.8 22.9796 364.53 22.6996 363.89 23.4096C358.34 29.5396 351.69 34.4796 345.47 39.8696C344.89 40.3696 344.64 41.2296 343.63 41.2696L343.8 41.7796M326.45 41.3196C326.87 42.1496 328.27 41.5096 329.22 41.6196C329.83 41.6596 330.45 41.6696 331.06 41.6396C333.108 41.5244 335.162 41.679 337.17 42.0996C339.37 42.4596 340.47 41.3396 341.53 39.7596C343.372 36.8861 345.607 34.2842 348.17 32.0296C351.46 29.2196 353.97 25.5596 357.57 23.0496C357.93 22.8096 358.22 22.4696 358.59 22.2496C362.33 19.9896 362.36 18.7496 358.75 16.0796C358.464 15.8615 358.203 15.6134 357.97 15.3396C356.17 13.2796 356.25 13.3496 354.27 15.4396C350.75 19.1593 347.052 22.7068 343.19 26.0696C338.099 30.5235 333.078 35.0574 328.13 39.6696C327.55 40.2096 325.81 40.0696 326.45 41.3196ZM301.73 42.3996C307.89 42.1696 314.07 42.8196 320.24 41.7996C321.043 41.7065 321.817 41.4445 322.512 41.0309C323.206 40.6172 323.806 40.0613 324.27 39.3996C327.563 34.8287 331.424 30.6955 335.76 27.0996C337.75 25.4796 339.18 23.0796 341.13 21.2996C343.93 18.7596 346.45 15.8996 349.93 14.1596C351.43 13.4096 351.63 11.4296 353.08 10.5196C353.48 10.2796 353.05 9.91961 352.85 9.63961C351.75 8.14961 350.18 7.08961 349.12 5.52961C348.52 4.63961 345.61 4.90961 344.78 5.82961C338.57 12.7596 331.55 18.8696 324.76 25.2096C319.85 29.7996 314.74 34.1896 309.79 38.7496C308.19 40.2296 306.54 42.7696 303.38 41.3896C314.605 28.2595 326.824 16.0132 339.93 4.75961C336.07 4.93961 332.33 3.84961 328.57 4.94961C328.301 5.05854 328.007 5.09308 327.72 5.04961C324.89 4.16961 323.59 6.21961 321.97 7.84961C317.41 12.4396 312.67 16.8296 307.98 21.2796C304.67 24.4396 301.15 27.3796 297.85 30.5596C294.89 33.3996 291.82 36.1396 288.79 38.9096C287.99 39.6496 286.84 39.9996 286.56 41.5496C291.69 41.1396 296.65 42.5696 301.73 42.3896M283.76 38.6596C284.61 39.0996 284.93 38.9296 285.28 38.3496C286.685 36.2793 288.318 34.374 290.15 32.6696C291 31.7996 290.63 31.4096 289.9 30.8496C284.2 26.4896 279.26 21.3096 274.13 16.3496C270.89 13.2096 267.81 9.89961 264.61 6.70961C264.167 6.2007 263.622 5.79012 263.01 5.50424C262.399 5.21836 261.735 5.0635 261.06 5.04961C258.47 5.02961 255.89 4.82961 253.3 4.72961C252.845 4.65691 252.38 4.68362 251.936 4.80792C251.492 4.93221 251.081 5.15112 250.73 5.44961C252.01 6.59961 253.21 7.81961 254.55 8.85961C257.72 11.4142 260.553 14.3612 262.98 17.6296C263.76 18.6396 264.9 19.0796 265.8 19.8996C270.468 24.1479 274.838 28.712 278.88 33.5596C280.41 35.3796 281.51 37.4696 283.76 38.6596ZM268.59 40.6296C268.752 40.8708 268.971 41.0682 269.227 41.2043C269.483 41.3404 269.77 41.4109 270.06 41.4096H280.79C276.76 37.5596 272.97 34.1296 269.4 30.4896C265.35 26.3696 261.47 22.1096 257.56 17.8496C253.86 13.8096 250.21 9.70961 246.56 5.60961C246.419 5.45081 246.247 5.32271 246.054 5.23326C245.861 5.14381 245.652 5.09491 245.44 5.08961C241.38 4.80961 237.31 4.54961 232.94 4.25961C235.051 6.70217 237.414 8.91449 239.99 10.8596C242.209 12.8722 244.219 15.1035 245.99 17.5196C246.8 18.3196 247.69 19.0196 248.63 19.6496C253.522 23.8719 257.981 28.5719 261.94 33.6796C263.91 36.3696 266.74 37.9996 268.6 40.6296M249.71 40.7796C250.31 41.6196 251.18 41.5296 252.05 41.5196C255.57 41.5196 259.05 40.7996 262.59 41.2396L263.11 40.5196C259.53 37.1596 255.85 33.8996 252.41 30.4096C248.37 26.3296 244.47 22.1096 240.65 17.8296C237.31 14.0996 233.65 10.6296 230.58 6.72961C228.96 4.67961 227.48 4.76961 225.49 4.68961C221.92 4.53961 218.35 4.18961 214.63 4.88961C216.18 7.18961 218.45 8.69961 220.48 10.4196C222.918 12.6148 225.135 15.043 227.1 17.6696C227.929 18.4495 228.822 19.1587 229.77 19.7896C234.609 23.9621 239.015 28.6123 242.92 33.6696C244.94 36.3996 247.84 38.0696 249.72 40.7696M229.92 41.2096C234.56 41.1896 239.22 41.1996 244.09 41.1996C240.98 38.0996 237.9 35.1796 234.97 32.1096C230.459 27.3906 226.002 22.6203 221.6 17.7996C217.88 13.7596 214.24 9.64961 210.57 5.56961C210.369 5.36191 210.126 5.20058 209.856 5.09693C209.587 4.99329 209.298 4.94983 209.01 4.96961C206.21 4.94961 203.42 4.96961 200.12 4.96961C201.051 6.44216 202.171 7.78686 203.45 8.96961C206.175 11.5883 208.518 14.5777 210.41 17.8496C211.03 18.8796 212.11 19.3496 212.87 20.1996C216.816 24.3688 220.318 28.9367 223.32 33.8296C224.78 36.3496 226.96 38.0896 228.48 40.4296C228.624 40.6777 228.834 40.881 229.086 41.0169C229.339 41.1528 229.624 41.2161 229.91 41.1996M210.55 40.3996C211.05 40.8196 211.37 41.3696 212.12 41.3296C215.97 41.0696 219.82 41.0996 223.66 41.4196C220.53 37.5596 217.64 34.3196 215.13 30.8196C211.68 25.9796 207.79 21.4996 204.52 16.4996C202.08 12.7796 199.06 9.34961 196.4 5.71961C196.234 5.48718 196.01 5.30217 195.75 5.1829C195.491 5.06363 195.205 5.01423 194.92 5.03961H181.62C181.58 5.37961 181.49 5.56961 181.55 5.63961C185.28 9.81961 188.88 14.1396 192.5 18.3996C196.24 22.7996 200.22 26.9996 203.74 31.5996C205.99 34.5496 207.64 37.9496 210.55 40.3996ZM191.87 40.4996C192.075 40.7471 192.339 40.939 192.638 41.0578C192.937 41.1766 193.261 41.2185 193.58 41.1796C197.46 41.1596 201.34 41.1696 205.54 41.1696C202.54 37.6296 199.5 34.4096 196.89 30.8796C193.31 26.0296 189.25 21.5596 185.83 16.5496C183.29 12.8096 180.17 9.37961 177.33 5.78961C177.192 5.58922 177.009 5.42415 176.795 5.30775C176.581 5.19135 176.343 5.1269 176.1 5.11961C169.741 4.64464 163.353 4.68478 157 5.23961C158.57 6.63961 159.83 7.85961 161.19 8.93961C164.272 11.4702 167.032 14.3684 169.41 17.5696C170.23 18.6496 171.45 19.0896 172.39 19.9696C176.97 24.2096 181.55 28.5296 185.22 33.5296C187.19 36.2096 189.9 37.9596 191.87 40.4996ZM186.32 40.9996C183.38 38.4096 181.1 35.4296 178.19 33.0296C177.49 32.4496 177.29 33.0796 177.02 33.3296C173.982 36.1239 170.74 38.6877 167.32 40.9996H186.32ZM149.04 41.1196C153.34 41.1196 157.62 41.0896 161.91 41.1396C162.98 41.1396 163.38 40.6596 164.01 39.8196C166.89 35.9896 169.84 32.1696 174.32 30.0196C175.42 29.4896 174.5 28.7596 174.34 28.5996C172.58 26.7596 170.71 25.0296 168.9 23.2296C168.42 22.7596 168.16 22.8296 167.73 23.2996C162.13 29.4996 155.42 34.4696 149.17 39.9596C149.08 40.0596 149.01 40.1796 148.95 40.2996L149.05 41.1196M144.27 40.6996C144.61 40.6596 144.93 40.1996 145.17 39.8596C147.517 36.5873 150.217 33.5827 153.22 30.8996C156.01 28.2996 158.52 25.3696 161.47 22.8696C162.45 22.0396 163.91 22.0596 164.62 20.8496C165.2 19.8696 165.48 19.1796 164.5 18.0996C163.04 16.4996 161.24 15.2196 160.1 13.1396C151.01 23.2896 140.42 31.6596 130.36 40.8096C134.98 41.2996 139.65 41.2596 144.26 40.7096M112.41 41.2196C114.5 41.1896 116.58 41.2196 118.66 41.2196V41.6196C120.32 41.6196 121.98 41.5096 123.62 41.6396C125.68 41.8096 126.99 40.8096 128.12 39.2896C131.42 34.8196 134.89 30.5096 139.49 27.2196C140.33 26.6196 140.79 25.5296 141.52 24.7696C145.27 20.8396 148.94 16.8396 153.76 14.0996C155.13 13.3296 155.44 11.4996 156.75 10.5696C156.804 10.4877 156.837 10.393 156.844 10.2949C156.851 10.1967 156.832 10.0985 156.79 10.0096C154.95 7.98961 153.43 5.52961 150.81 4.44961C149.69 3.98961 149.01 5.38961 148.28 6.12961C144.53 9.83961 140.98 13.7596 137.03 17.2396C132.49 21.2496 128.23 25.5596 123.56 29.4396C119.999 32.2254 116.72 35.3537 113.77 38.7796C113.24 39.4396 112.23 38.9496 111.89 40.1496C111.63 41.0696 111.21 41.2496 112.41 41.2296M101.66 40.7996C102.306 40.739 102.958 40.7557 103.6 40.8496C106.77 41.4796 108.74 40.0396 110.64 37.5896C114.79 32.2496 119.22 27.1196 124.7 23.0096C125.512 22.2157 126.246 21.3449 126.89 20.4096C131.256 15.7416 135.872 11.315 140.72 7.14961C141.77 6.19961 143.74 6.31961 143.99 4.31961C140.986 4.0342 137.967 3.92068 134.95 3.97961C131.31 4.22961 127.99 5.15961 125.27 8.21961C121.12 12.8696 116.3 16.9196 111.79 21.2496C108.49 24.4096 104.99 27.3496 101.66 30.4996C98.6391 33.3798 95.5618 36.2003 92.43 38.9596C91.5692 39.685 90.8211 40.5343 90.21 41.4796C94.02 40.2196 97.88 40.9596 101.67 40.7796M87.32 38.5296C88.29 38.9996 88.69 38.9896 89.16 38.2096C90.501 36.183 92.0863 34.3291 93.88 32.6896C94.73 31.8396 94.36 31.4496 93.66 30.8796C87.2356 25.5228 81.1254 19.8 75.36 13.7396C72.56 10.8796 69.81 7.96961 66.78 5.33961C66.6 5.13389 66.3809 4.96605 66.1354 4.84587C65.8899 4.72569 65.6229 4.65558 65.35 4.63961C61.77 4.65961 58.2 4.64961 54.63 4.64961L54.46 5.24961C55.7951 6.72207 57.2575 8.07397 58.83 9.28961C61.8251 11.8143 64.5255 14.669 66.88 17.7996C67.6983 18.5859 68.5814 19.3017 69.52 19.9396C74.1962 24.1679 78.5733 28.7154 82.62 33.5496C84.11 35.2996 85.03 37.4296 87.32 38.5296ZM71.88 40.1496C72.1295 40.4029 72.4351 40.5938 72.7722 40.7067C73.1093 40.8197 73.4683 40.8515 73.82 40.7996C76.47 40.8996 79.14 40.4596 81.77 41.0996C82.15 41.1996 82.71 41.2496 82.87 40.7196C83.04 40.1196 82.44 39.8896 82.1 39.5496C79.14 36.5696 76.12 33.6296 73.2 30.5896C69.1928 26.4007 65.2326 22.1671 61.32 17.8896C57.6052 13.8442 53.9283 9.764 50.29 5.64961C50.101 5.43687 49.8656 5.27034 49.6021 5.16285C49.3386 5.05536 49.0539 5.00978 48.77 5.02961C45.12 5.00961 41.47 5.02961 37.39 5.02961C39.0028 6.88651 40.806 8.56905 42.77 10.0496C45.4167 12.4197 47.8372 15.031 50 17.8496C50.88 18.6696 51.83 19.4296 52.82 20.1096C57.4901 24.1337 61.7447 28.6162 65.52 33.4896C67.42 36.0396 69.92 37.7896 71.88 40.1396M52.43 40.1196C52.5757 40.3225 52.768 40.4875 52.9908 40.6006C53.2135 40.7137 53.4602 40.7717 53.71 40.7696H66.21C64.4133 38.639 62.4899 36.6187 60.45 34.7196C57.35 32.1796 55.01 28.9696 52.19 26.1796C49.6295 23.6147 47.1645 20.9562 44.8 18.2096C41.12 13.9696 37.18 9.93961 33.44 5.74961C33.2414 5.50842 32.9905 5.31555 32.7064 5.18562C32.4223 5.05568 32.1123 4.99207 31.8 4.99961C27.06 4.95961 22.34 4.59961 17.11 4.16961C18.5577 5.93977 20.2016 7.53999 22.01 8.93961C25.168 11.4818 27.9757 14.4307 30.36 17.7096C31.09 18.6796 32.21 19.0096 33.06 19.7896C37.8661 23.993 42.2686 28.6365 46.21 33.6596C48.06 36.1396 50.51 37.8296 52.42 40.1396L52.43 40.1196ZM31.55 40.1196C31.7231 40.3444 31.9482 40.5238 32.2061 40.6423C32.4639 40.7607 32.7467 40.8147 33.03 40.7996C37.69 41.0996 42.35 41.1596 47.02 40.9796C45.1456 38.7792 43.1421 36.6922 41.02 34.7296C37.92 32.1696 35.58 28.9596 32.76 26.1696C30.1928 23.6081 27.7243 20.9495 25.36 18.1996C21.66 13.9596 17.74 9.92961 13.99 5.72961C13.707 5.41865 13.3554 5.17806 12.963 5.02702C12.5706 4.87598 12.1484 4.81865 11.73 4.85961C9.03001 4.83961 6.30999 4.85961 3.04999 4.85961C4.51999 6.49961 5.56999 7.84961 6.79999 8.99961C9.5013 11.6385 11.8355 14.6286 13.74 17.8896C14.37 18.9096 15.44 19.3896 16.21 20.2396C20.0824 24.3703 23.5391 28.872 26.53 33.6796C28.055 35.9379 29.7322 38.0895 31.55 40.1196ZM14.9 41.0596C18.59 40.6196 22.34 41.7296 26.2 40.5996C24.723 38.4661 23.1201 36.4225 21.4 34.4796C18.84 31.8796 17 28.7496 14.73 25.9596C11.9761 22.6402 9.3799 19.1931 6.95001 15.6296C4.66001 12.2196 1.88001 9.19961 -0.329987 5.73961C-0.480075 5.41614 -0.718169 5.14144 -1.01703 4.94692C-1.31589 4.75239 -1.66345 4.6459 -2.01999 4.63961H-15.96C-14.2996 6.78545 -12.4451 8.77384 -10.42 10.5796C-8.21001 12.7396 -6.71999 15.4596 -4.76999 17.7996C-3.13999 19.7496 -1.17999 21.4496 0.51001 23.3896C3.51001 26.5696 6.18001 30.0396 8.48001 33.7596C9.96001 36.3596 12.31 38.0096 13.88 40.3896C14.11 40.7496 14.4 41.1296 14.89 41.0696M-5.07999 40.0996C-3.87999 41.3296 -2.02001 41.0296 -0.480011 41.3696C2.52999 42.0196 5.62001 41.5496 8.98001 41.4296C7.2563 39.0489 5.38601 36.7778 3.38 34.6296C0.720005 32.0996 -1.05999 28.9496 -3.39999 26.2096C-5.58999 23.6396 -7.67999 21.0096 -9.64999 18.2496C-12.75 13.9096 -16.16 9.78961 -19.41 5.54961C-19.602 5.2946 -19.854 5.09091 -20.1435 4.95659C-20.4331 4.82228 -20.7513 4.76148 -21.07 4.77961C-26.97 4.75961 -32.87 4.76961 -38.77 4.77961C-38.94 4.77961 -39.11 4.96961 -39.38 5.11961C-37.91 7.27961 -35.76 8.61961 -33.92 10.2596C-31.4271 12.5991 -29.1139 15.1229 -27 17.8096C-26.11 18.6296 -25.17 19.3796 -24.18 20.0696C-19.5101 24.1107 -15.2465 28.5988 -11.45 33.4696C-9.55001 35.9896 -7.21001 37.9096 -5.07001 40.0996M-23.1 40.8496C-22.4 40.3396 -21 40.7496 -19.92 40.7496H-10.43C-13.7 38.0596 -15.79 34.9196 -18.98 32.7096C-22.3013 35.8201 -25.8005 38.735 -29.46 41.4396C-27.3 41.3996 -25.17 42.3596 -23.1 40.8396M-35.39 41.5396C-34.8321 41.6403 -34.2566 41.5411 -33.7646 41.2594C-33.2726 40.9778 -32.8957 40.5317 -32.7 39.9996C-31.9135 38.2471 -30.6828 36.7304 -29.13 35.5996C-27.26 34.3496 -26.3 32.0796 -24.25 30.9296C-23.45 30.4796 -22.82 29.6996 -21.22 30.1696C-23.3612 27.4775 -25.7408 24.9841 -28.33 22.7196C-34.26 29.2696 -41.3 34.5696 -48.32 40.6496L-35.39 41.5196M-52.5 40.6896C-52.2867 40.6618 -52.0839 40.5801 -51.9107 40.4525C-51.7376 40.3248 -51.5997 40.1552 -51.51 39.9596C-49.1751 36.5807 -46.4196 33.5127 -43.31 30.8296C-40.77 28.5096 -38.61 25.6896 -35.86 23.4996C-35.0753 22.7773 -34.1721 22.1954 -33.19 21.7796C-31.27 21.0896 -31.27 19.5696 -32.47 17.8796C-33.7 16.1596 -35.67 15.1196 -36.5 13.0696C-45.3 23.0696 -55.82 31.1696 -65.3 40.4496C-61.05 40.8796 -56.77 40.9596 -52.5 40.6896ZM-84.7 40.1396C-84.5 40.9996 -84.14 40.7096 -83.83 40.7196C-81.67 40.7496 -79.51 40.7396 -77.35 40.7396C-72.88 41.1696 -68.99 40.9596 -66.15 36.3596C-63.83 32.5996 -59.95 29.9296 -56.85 26.7296C-53.2468 22.7579 -49.3743 19.0391 -45.26 15.5996C-43.3607 14.2982 -41.6569 12.7324 -40.2 10.9496C-39.78 10.3696 -39.72 10.1396 -40.14 9.54961C-41.21 8.02961 -42.84 7.04961 -43.81 5.38961C-44.35 4.45961 -47.3 5.02961 -48.27 6.00961C-51.83 9.59961 -55.36 13.2396 -59.01 16.7396C-63.21 20.7396 -67.45 24.6996 -71.81 28.5196C-75.57 31.8196 -79.33 35.1196 -82.85 38.6696C-83.1911 39.0347 -83.6222 39.3037 -84.1 39.4496C-84.4 39.5396 -84.95 39.1196 -84.7 40.1496M-104.66 40.8296C-102.07 40.8296 -99.48 40.7696 -96.9 40.7496C-95.3218 40.6342 -93.7371 40.6409 -92.16 40.7696C-89.42 41.1696 -87.81 39.8796 -86.23 37.8696C-81.93 32.3896 -77.4 27.0896 -71.74 22.8696C-71.0463 22.162 -70.4234 21.3883 -69.88 20.5596C-65.4389 15.787 -60.7278 11.273 -55.77 7.03961C-54.89 6.23961 -53.36 6.37961 -52.82 4.73961C-57.6 4.73961 -62.2 4.76961 -66.79 4.71961C-67.2508 4.73773 -67.7018 4.85845 -68.1101 5.07296C-68.5184 5.28748 -68.8736 5.59039 -69.15 5.95961C-73.29 10.1796 -77.37 14.4296 -81.85 18.3396C-85.45 21.4996 -88.78 24.9996 -92.4 28.1796C-96.37 31.6496 -100.38 35.0996 -104.02 38.9296C-104.275 39.1792 -104.599 39.3464 -104.95 39.4096C-105.51 39.5096 -105.66 39.6596 -105.65 40.2896C-105.64 41.2296 -105.03 40.8396 -104.67 40.8396M-109.27 38.5596C-108.43 38.9396 -108.03 39.0996 -107.57 38.3396C-106.173 36.2663 -104.542 34.3604 -102.71 32.6596C-102.03 31.9496 -102.13 31.5496 -102.85 30.9896C-108.54 26.5996 -113.53 21.4496 -118.65 16.4696C-122.44 12.7996 -125.95 8.85961 -129.85 5.30961C-130.134 5.00486 -130.478 4.76156 -130.86 4.59473C-131.241 4.4279 -131.653 4.34108 -132.07 4.33961H-143C-141.691 6.02671 -140.164 7.53312 -138.46 8.81961C-135.228 11.3873 -132.356 14.3773 -129.92 17.7096C-129.19 18.6696 -128.07 19.0096 -127.22 19.7896C-122.523 24.1059 -118.104 28.7151 -113.99 33.5896C-112.51 35.3396 -111.59 37.4996 -109.27 38.5496M-123.93 41.0196C-123.27 41.9996 -121.99 41.7596 -121.12 41.4996C-118.63 40.7796 -116.14 41.3196 -113.53 41.1196C-113.5 40.2496 -114.26 39.8896 -114.76 39.3696C-119.21 34.7196 -123.63 30.0196 -128.12 25.4396C-134.03 19.4096 -139.47 12.9596 -145.28 6.83961C-147.28 4.75961 -148.98 4.58961 -151.3 4.63961C-154.02 4.68961 -156.73 4.63961 -159.63 4.63961C-158.069 6.44378 -156.327 8.08243 -154.43 9.52961C-151.522 12.0463 -148.893 14.8693 -146.59 17.9496C-146.09 18.5896 -145.18 18.8996 -144.55 19.4596C-139.454 23.7713 -134.84 28.623 -130.79 33.9296C-128.78 36.6996 -125.8 38.2696 -123.93 41.0296V41.0196ZM-143.79 40.0996C-143.562 40.3264 -143.284 40.4969 -142.979 40.5976C-142.673 40.6982 -142.348 40.7263 -142.03 40.6796C-137.98 40.5796 -133.93 40.7796 -129.91 41.2596C-132.24 38.8296 -134.15 36.5496 -136.35 34.6096C-139.45 31.8796 -141.89 28.5496 -144.83 25.7096C-147.32 23.3196 -149.55 20.7196 -151.86 18.1796C-155.41 14.2796 -159.18 10.5396 -162.58 6.53961C-164.22 4.60961 -165.75 4.37961 -167.81 4.15961C-171.41 3.78961 -174.98 4.30961 -178.88 4.30961C-177.557 6.0381 -176.003 7.57592 -174.26 8.87961C-171.09 11.4208 -168.266 14.3658 -165.86 17.6396C-165.08 18.6496 -163.92 19.0396 -163.02 19.8696C-158.276 24.0431 -153.925 28.6423 -150.02 33.6096C-148.16 36.0896 -145.74 37.8296 -143.79 40.0896M-162.07 41.5196C-158.45 39.8796 -154.7 40.8496 -151 40.7796C-150.687 40.8372 -150.365 40.8069 -150.068 40.6921C-149.772 40.5774 -149.513 40.3827 -149.32 40.1296C-152.82 36.8296 -156.46 33.7996 -159.59 30.2996C-163.69 25.7196 -168.15 21.4996 -172.06 16.7196C-174.66 13.5296 -178.02 10.8396 -180.48 7.54961C-184.2 2.54961 -189.31 3.66961 -194.54 3.31961C-192.88 5.19961 -191.56 6.93961 -190 8.41961C-187.036 11.2981 -184.449 14.5406 -182.3 18.0696C-181.6 19.1696 -180.36 19.9396 -179.45 20.9296C-175.767 24.7508 -172.529 28.9778 -169.8 33.5296C-168.26 36.2396 -165.9 38.1296 -164.3 40.6596C-164.101 41.0518 -163.765 41.3566 -163.355 41.5154C-162.945 41.6742 -162.491 41.6757 -162.08 41.5196M-182.1 40.7096C-181.59 41.5096 -180.8 41.4396 -180.01 41.5096C-176.56 41.8196 -173.17 40.8396 -169.28 41.3396C-172.13 37.8596 -174.88 34.8896 -177.19 31.6096C-180.76 26.5496 -184.85 21.8796 -188.28 16.6896C-190.464 13.3225 -192.919 10.1387 -195.62 7.16961C-195.997 6.66101 -196.338 6.12634 -196.64 5.56961C-197.47 4.38961 -198.3 3.28961 -200.13 3.33961C-204.28 3.43961 -208.45 3.09961 -212.68 4.15961C-210.764 6.55 -208.675 8.79608 -206.43 10.8796C-204.35 12.8796 -202.98 15.4196 -201.16 17.6096C-199.66 19.4096 -197.92 21.0096 -196.32 22.7096C-193.062 26.0452 -190.187 29.7348 -187.75 33.7096C-186.18 36.4096 -183.7 38.1696 -182.1 40.7096ZM-201.16 40.3296C-200.922 40.601 -200.62 40.8076 -200.28 40.9301C-199.941 41.0525 -199.576 41.0868 -199.22 41.0296C-195.57 41.0096 -191.92 41.0196 -188.26 41.0196L-188.09 40.3496C-190.83 37.0896 -193.74 33.9496 -196.28 30.5396C-199.78 25.8096 -203.71 21.4196 -207.09 16.5796C-209.45 13.2096 -212.44 10.1196 -214.81 6.74961C-216.54 4.27961 -218.33 3.98961 -220.81 4.09961C-226.13 4.32961 -231.43 3.15961 -236.84 4.09961C-234.673 6.43553 -232.333 8.605 -229.84 10.5896C-227.455 12.7366 -225.3 15.1261 -223.41 17.7196C-222.68 18.6796 -221.56 19.0296 -220.71 19.7996C-215.831 24.0337 -211.383 28.7399 -207.43 33.8496C-205.57 36.3596 -202.97 37.9196 -201.16 40.3296ZM-206.79 40.5996C-209.93 38.1596 -211.92 35.2496 -214.66 33.0596C-215.62 32.2996 -215.91 33.2896 -216.16 33.5396C-218.91 36.3296 -222.16 38.4896 -225.29 41.0596C-219.33 40.4196 -213.36 41.8296 -206.79 40.5996ZM-231.21 40.9996C-230.746 41.0606 -230.274 40.9784 -229.857 40.764C-229.441 40.5495 -229.1 40.2131 -228.88 39.7996C-226.06 35.9796 -223.08 32.1896 -218.63 30.0196C-217.5 29.4596 -218.38 28.7896 -218.58 28.5696C-220.33 26.7496 -222.18 25.0396 -223.98 23.2496C-224.44 22.7896 -224.68 22.7796 -225.14 23.2796C-230.86 29.5296 -237.66 34.5996 -244.3 40.4296C-239.66 40.6296 -235.44 40.7996 -231.21 41.0096M-248.93 40.6696C-248.756 40.6611 -248.586 40.6156 -248.431 40.5363C-248.275 40.457 -248.139 40.3457 -248.03 40.2096C-245.63 36.4696 -242.44 33.5096 -239.22 30.4696C-236.92 28.3096 -234.89 25.7696 -232.42 23.7296C-231.541 22.8975 -230.518 22.2333 -229.4 21.7696C-227.62 21.1296 -227.6 19.4496 -228.66 17.9496C-229.87 16.2296 -231.93 15.2496 -232.73 12.9896C-241.61 23.1796 -252.27 31.2396 -262.23 40.6796C-257.46 41.2796 -253.19 40.6496 -248.93 40.6796M-280.95 40.2296C-280.55 41.4696 -279.72 39.9296 -279.22 40.7496C-275.39 40.7496 -271.58 40.6896 -267.77 40.7796C-267.172 40.8264 -266.573 40.7074 -266.038 40.4357C-265.504 40.164 -265.055 39.7502 -264.74 39.2396C-261.47 34.7396 -257.94 30.4696 -253.35 27.1796C-252.65 26.4796 -252.03 25.6996 -251.5 24.8596C-248.38 21.2917 -244.894 18.0607 -241.1 15.2196C-239.512 14.1114 -238.083 12.7927 -236.85 11.2996C-236.09 10.3296 -235.89 10.0196 -236.8 9.17961C-238.5 7.60961 -239.7 5.59961 -241.48 4.08961C-242.15 3.52961 -242.39 3.60961 -242.96 4.22961C-248.46 10.2896 -254.55 15.7496 -260.46 21.3996C-266.6 27.2496 -273.34 32.4396 -279.12 38.6596C-279.32 38.8596 -279.62 38.9896 -279.75 39.2196C-280.03 39.7196 -281.38 38.9396 -280.95 40.2196M-299.99 38.5796C-300.207 38.7648 -300.414 38.9618 -300.61 39.1696C-300.94 39.6096 -301.98 39.1396 -301.86 39.9096C-301.68 41.0396 -300.64 40.5796 -299.96 40.5596C-296.02 40.4596 -292.19 41.5296 -288.26 41.6096C-287.52 41.66 -286.779 41.5308 -286.1 41.2331C-285.421 40.9353 -284.824 40.4779 -284.36 39.8996C-281.378 36.4535 -278.405 33.0001 -275.44 29.5396C-273.265 27.1776 -270.867 25.031 -268.28 23.1296C-267.12 22.2096 -266.58 20.8796 -265.59 19.8296C-261.342 15.3582 -256.834 11.1409 -252.09 7.19961C-250.6 5.94961 -248.69 5.19961 -247.58 3.23961C-250.46 2.18961 -253 3.95961 -255.62 3.43961C-260.95 2.34961 -264.54 4.43961 -268.02 8.56961C-271.95 13.2396 -276.92 17.0896 -281.33 21.3596C-287.43 27.2496 -294.18 32.4196 -299.99 38.5896M-296.17 27.8896C-295.55 28.1096 -295.28 28.2896 -294.75 27.8296C-292.807 26.1519 -290.844 24.4984 -288.86 22.8696C-288.25 22.3696 -288.34 21.9896 -288.9 21.5196C-295 16.3796 -299.9 10.1196 -305.32 4.32961C-305.597 4.06263 -305.934 3.86676 -306.304 3.75878C-306.673 3.6508 -307.063 3.63393 -307.44 3.70961C-311.25 3.70961 -315.06 3.76961 -318.87 3.78961C-320.198 3.9281 -321.541 3.78498 -322.81 3.36961C-322.253 4.30527 -321.46 5.07784 -320.51 5.60961C-317.612 7.54 -315.032 9.90815 -312.86 12.6296C-312.057 13.3252 -311.186 13.9383 -310.26 14.4596C-306.666 17.3147 -303.333 20.4838 -300.3 23.9296C-299 25.3496 -298.2 27.1596 -296.16 27.8896" fill="white"/>
</g>
</g>
</g>
</svg>
