<svg version="1.1" xmlns="http://www.w3.org/2000/svg" width="529" height="492">

<path d="M0 0 C-0.71377002 2.3792334 -1.42798385 4.75831965 -2.14453125 7.13671875 C-2.69228882 8.97008083 -3.23211161 10.8058439 -3.76171875 12.64453125 C-4.00535156 13.48371094 -4.24898437 14.32289063 -4.5 15.1875 C-4.7165625 15.94417969 -4.933125 16.70085937 -5.15625 17.48046875 C-6.02163933 20.06461745 -7.08491917 22.52483348 -8.17480469 25.02075195 C-9.74416401 28.78489279 -11.04300876 32.64691193 -12.375 36.5 C-12.83289917 37.81460205 -12.83289917 37.81460205 -13.30004883 39.15576172 C-15.5243381 45.56306888 -17.67398114 51.99230533 -19.76171875 58.4453125 C-20.75093268 61.28501179 -21.80929191 64.05091845 -22.9375 66.8359375 C-24.89330924 71.67392023 -26.62912367 76.56175281 -28.3125 81.5 C-32.99293516 95.10207547 -37.8602683 108.63696478 -42.7199707 122.17578125 C-45.91426123 131.08566902 -49.07810432 139.99618997 -52 149 C-52.66 149 -53.32 149 -54 149 C-56.22891669 142.87231987 -56.22891669 142.87231987 -57.28262329 139.95944214 C-58.73881629 135.93417184 -60.20586551 131.91347611 -61.69335938 127.8996582 C-64.55451964 120.12909161 -67.26223395 112.41487539 -69.3515625 104.3984375 C-72.1327449 92.14069017 -72.1327449 92.14069017 -79.13916016 82.19433594 C-84.21171461 79.40283907 -89.52893491 78.34820208 -95.20654297 77.47314453 C-99.71153906 76.71010639 -104.00881607 75.32314879 -108.375 74 C-110.10316541 73.51206476 -111.83235181 73.0277323 -113.5625 72.546875 C-120.49958052 70.59327071 -127.38590388 68.47514082 -134.27490234 66.359375 C-139.17052493 64.85650845 -144.06976181 63.38535619 -149 62 C-149 61.34 -149 60.68 -149 60 C-125.90842145 50.47569219 -102.80105946 40.99237064 -79.6484375 31.6171875 C-76.61976764 30.39068433 -73.59112647 29.16411031 -70.5625 27.9375 C-69.80383636 27.63028015 -69.04517273 27.3230603 -68.26351929 27.00653076 C-52.56199655 20.64685475 -36.88186018 14.23518811 -21.20532227 7.81420898 C-20.29484634 7.44132751 -19.38437042 7.06844604 -18.44630432 6.68426514 C-16.74084114 5.9857138 -15.03546249 5.28695602 -13.33018494 4.58795166 C-11.85164617 3.98224589 -10.37264926 3.37765646 -8.89306641 2.77450562 C-7.28345467 2.11596911 -5.67833307 1.44647477 -4.07421875 0.7746582 C-2 0 -2 0 0 0 Z " fill="#3B9FA1" transform="translate(333,180)" data-index="1"></path>
<path d="M0 0 C2.078125 2.14453125 2.078125 2.14453125 4.25 4.8125 C10.37470683 11.86397168 16.1010016 14.51816816 25.34765625 15.2734375 C35.19255837 15.5425936 43.57646742 14.44608572 51.44921875 7.9921875 C54.35839048 5.16135971 56.74660319 2.38009521 59 -1 C87.95414829 2.5392587 113.95358686 18.62389899 134.86328125 38.26953125 C136.57499095 40.87532986 136.90944045 42.89735114 137 46 C135.4453125 48.30859375 135.4453125 48.30859375 133.125 50.4375 C132.30386719 51.19804687 131.48273438 51.95859375 130.63671875 52.7421875 C126.86267032 55.9738912 123.00299814 59.05689735 119 62 C116.16910959 60.6792295 113.81671147 59.19542887 111.3828125 57.2421875 C110.35921631 56.43297852 110.35921631 56.43297852 109.31494141 55.60742188 C108.23092041 54.74987305 108.23092041 54.74987305 107.125 53.875 C78.7739679 31.84511256 45.88369912 23.10729617 10.17578125 27.50390625 C-14.39264794 31.31604848 -36.94089704 43.46645989 -54.421875 60.98828125 C-56 62 -56 62 -57.8984375 61.90234375 C-61.61075264 60.30839431 -64.43614007 57.61496033 -67.51953125 55.05078125 C-68.96120774 53.858844 -70.4278731 52.69388638 -71.94921875 51.60546875 C-74.88654596 49.4789292 -75.94031309 48.210514 -76.94140625 44.6796875 C-77 41 -77 41 -75.1484375 38.26171875 C-74.23320312 37.41222656 -73.31796875 36.56273437 -72.375 35.6875 C-71.62609497 34.98874756 -71.62609497 34.98874756 -70.86206055 34.27587891 C-69.26819233 32.81649872 -67.64361101 31.403011 -66 30 C-65.49065918 29.56220215 -64.98131836 29.1244043 -64.45654297 28.67333984 C-52.18920178 18.30961941 -16.37280596 -7.23678023 0 0 Z " fill="#2D7B7E" transform="translate(235,97)" data-index="2"></path>
<path d="M0 0 C3.44042276 1.48669852 5.69242086 3.46689868 8.375 6.0625 C19.6873822 16.35396852 33.01575297 23.06866249 47 29 C47.71172363 29.32194336 48.42344727 29.64388672 49.15673828 29.97558594 C61.43974492 35.38068082 73.92393429 35.57508045 87.125 35.625 C87.97113861 35.63226105 88.81727722 35.63952209 89.6890564 35.64700317 C106.24875021 35.72218611 121.60300966 33.25663971 136.75 26.3125 C137.72026123 25.87824707 138.69052246 25.44399414 139.69018555 24.99658203 C150.79268054 19.90450894 160.50109451 13.53322196 169.9140625 5.7265625 C170.94660156 4.87191406 170.94660156 4.87191406 172 4 C172.66773438 3.40960938 173.33546875 2.81921875 174.0234375 2.2109375 C176 1 176 1 177.89404297 1.25146484 C181.80539322 2.64170364 184.64589991 5.56838612 187.75 8.25 C188.79607422 9.11044922 188.79607422 9.11044922 189.86328125 9.98828125 C194.82318021 14.24932947 194.82318021 14.24932947 195.63671875 17.703125 C192.8759785 27.66211436 175.83761684 37.50412987 167.36230469 42.57958984 C161.35736237 45.95588433 155.21753586 49.03660131 149 52 C147.88882813 52.53367187 146.77765625 53.06734375 145.6328125 53.6171875 C139.75536688 56.23843056 133.67291167 58.09205479 127.5 59.875 C126.33174683 60.21700439 126.33174683 60.21700439 125.13989258 60.56591797 C118.50158776 62.39001878 118.50158776 62.39001878 115 61 C113.78540204 59.29299746 112.57492727 57.58251374 111.40625 55.84375 C107.50534634 50.72923187 101.24891637 47.25954721 95 46 C85.37887811 45.22988827 77.08226791 44.94475799 69.37109375 51.09765625 C65.81814017 54.20585888 62.62598596 57.06102107 60 61 C37.74526897 63.38443547 11.62639524 44.66365459 -5 31.3125 C-6.67903267 29.88946334 -8.3468044 28.45297224 -10 27 C-10.73605469 26.35933594 -11.47210938 25.71867187 -12.23046875 25.05859375 C-16.86364755 20.7768337 -16.86364755 20.7768337 -17.42578125 17.57421875 C-16.85641569 14.13190768 -15.51554115 12.94631518 -13 10.5625 C-12.18660156 9.79164063 -11.37320313 9.02078125 -10.53515625 8.2265625 C-7.16790811 5.2691951 -3.67933709 2.55648762 0 0 Z " fill="#F9B80F" transform="translate(176,331)" data-index="3"></path>
<path d="M0 0 C4.14006521 1.74723782 7.11289596 4.59251779 10.41796875 7.58984375 C11.09408203 8.18861328 11.77019531 8.78738281 12.46679688 9.40429688 C14.94393141 11.60537263 17.38696627 13.80884127 19.73046875 16.15234375 C19.44787963 20.36292157 17.82354787 22.67128484 15.23046875 25.90234375 C-3.76694667 51.18667362 -9.94242709 82.94472414 -5.55078125 114.02734375 C-2.15585881 134.25956382 5.70725794 154.14604768 18.6484375 170.2421875 C19.73046875 172.15234375 19.73046875 172.15234375 19.73046875 174.125 C17.3600389 178.93067615 11.9015807 181.96713099 7.73046875 185.15234375 C7.10785156 185.64992188 6.48523438 186.1475 5.84375 186.66015625 C3.51095478 188.41128337 2.22224801 189.19605746 -0.73046875 188.93359375 C-10.37994279 185.96452481 -16.66352284 169.99130128 -21.15234375 161.65625 C-24.94504102 154.02833644 -27.68972131 146.22603493 -30.20703125 138.08984375 C-30.51398926 137.10177734 -30.82094727 136.11371094 -31.13720703 135.09570312 C-33.99266876 125.47765221 -33.99266876 125.47765221 -33.26953125 121.15234375 C-31.73046875 119.5 -31.73046875 119.5 -29.64453125 118.21484375 C-21.68068297 112.75552726 -17.51405638 106.63201414 -15.26953125 97.15234375 C-13.89767153 87.45957788 -16.27972974 79.13704601 -21.69140625 71.01953125 C-24.99598707 66.91545507 -28.89012368 64.04275275 -33.26953125 61.15234375 C-32.71706115 55.13655827 -31.44123937 49.92933462 -29.33203125 44.27734375 C-29.02700684 43.4587085 -28.72198242 42.64007324 -28.40771484 41.79663086 C-23.12106093 28.14009619 -15.712678 15.35919106 -6.26953125 4.15234375 C-5.30660156 2.97285156 -5.30660156 2.97285156 -4.32421875 1.76953125 C-2.26953125 0.15234375 -2.26953125 0.15234375 0 0 Z " fill="#234156" transform="translate(149.26953125,149.84765625)" data-index="4"></path>
<path d="M0 0 C8.32582023 3.31402958 13.1849183 14.60370153 17.39453125 21.953125 C17.74725098 22.56671875 18.0999707 23.1803125 18.46337891 23.8125 C23.1060341 31.97244594 26.71549054 39.91945149 29.39453125 48.953125 C30.21238328 51.31108798 31.04174893 53.66445975 31.87890625 56.015625 C32.39453125 57.953125 32.39453125 57.953125 32.39453125 61.953125 C30.63671875 63.375 30.63671875 63.375 28.26953125 64.703125 C21.48585734 68.95892043 17.06350704 74.58947934 14.87890625 82.35546875 C12.64911855 94.31360441 14.75274554 102.99044643 21.39453125 112.953125 C23.53908106 115.3512834 25.72467521 117.17944441 28.39453125 118.953125 C29.73098041 119.94895703 31.06503106 120.94803444 32.39453125 121.953125 C32.13060101 123.55844186 31.85784672 125.16230743 31.58203125 126.765625 C31.43121094 127.65894531 31.28039062 128.55226563 31.125 129.47265625 C29.32868274 138.03157969 26.79565614 146.11308405 23.33203125 154.140625 C22.94426514 155.04119629 22.55649902 155.94176758 22.15698242 156.86962891 C10.07201105 184.12653301 10.07201105 184.12653301 -0.07421875 189.18359375 C-3.91118699 188.83424016 -6.25930406 186.65944101 -9.10546875 184.265625 C-9.66105469 183.81767578 -10.21664063 183.36972656 -10.7890625 182.90820312 C-11.8828368 182.02417613 -12.97154336 181.13383632 -14.0546875 180.23681641 C-16.2160421 178.44771022 -18.41099796 176.70133214 -20.60546875 174.953125 C-19.98865559 170.91936274 -17.78591588 167.99843918 -15.54296875 164.703125 C-1.58480907 143.51082673 6.0701004 120.6377542 5.83203125 95.140625 C5.82898987 94.44412842 5.82594849 93.74763184 5.82281494 93.0300293 C5.7513845 81.93259618 4.88307772 71.54173233 1.39453125 60.953125 C1.18554199 60.29038574 0.97655273 59.62764648 0.76123047 58.94482422 C-3.59589196 45.39694767 -9.8248062 31.30171752 -19.48828125 20.71484375 C-20.60546875 18.953125 -20.60546875 18.953125 -20.64453125 17.06640625 C-19.06594974 13.85583257 -16.50662595 11.76973141 -13.85546875 9.453125 C-13.0665625 8.74349609 -13.0665625 8.74349609 -12.26171875 8.01953125 C-11.21900842 7.08780246 -10.16763789 6.16566575 -9.10742188 5.25390625 C-7.71839268 4.05092388 -6.37069012 2.80066494 -5.02734375 1.546875 C-2.60546875 -0.046875 -2.60546875 -0.046875 0 0 Z " fill="#8E5945" transform="translate(381.60546875,150.046875)" data-index="5"></path>
<path d="M0 0 C1.46408174 3.85729229 0.49427814 6.47597574 -0.75 10.3125 C-1.09546875 11.40175781 -1.4409375 12.49101562 -1.796875 13.61328125 C-2.60127487 15.87761464 -3.48029442 18.11675014 -4.4296875 20.32421875 C-6.28009822 24.65565279 -7.8367313 29.05020739 -9.375 33.5 C-9.83289917 34.81460205 -9.83289917 34.81460205 -10.30004883 36.15576172 C-12.5243381 42.56306888 -14.67398114 48.99230533 -16.76171875 55.4453125 C-17.75093268 58.28501179 -18.80929191 61.05091845 -19.9375 63.8359375 C-21.89330924 68.67392023 -23.62912367 73.56175281 -25.3125 78.5 C-29.99293516 92.10207547 -34.8602683 105.63696478 -39.7199707 119.17578125 C-42.91426123 128.08566902 -46.07810432 136.99618997 -49 146 C-49.66 146 -50.32 146 -51 146 C-55.36129766 134.01003327 -59.69648714 122.01083466 -64 110 C-64.27118652 109.24352173 -64.54237305 108.48704346 -64.82177734 107.7076416 C-66.29868172 103.58283262 -67.76465239 99.45444385 -69.21343994 95.31967163 C-69.86659896 93.46140138 -70.52870287 91.60628301 -71.19091797 89.7512207 C-71.57908691 88.63577881 -71.96725586 87.52033691 -72.3671875 86.37109375 C-72.70862793 85.40099365 -73.05006836 84.43089355 -73.40185547 83.43139648 C-74 81 -74 81 -73 78 C-71.37296067 76.27127071 -69.71541898 74.63818448 -68 73 C-66.5370565 71.56719204 -65.07914453 70.12923716 -63.625 68.6875 C-62.91601562 67.99011719 -62.20703125 67.29273438 -61.4765625 66.57421875 C-58.83378139 63.82722702 -56.3456792 60.97642866 -53.84716797 58.09887695 C-50.89297615 54.74212476 -47.82162925 51.49899367 -44.75 48.25 C-38.44291121 41.55047013 -32.20232432 34.79655898 -26 28 C-23.71462218 25.50417012 -21.42686582 23.01052157 -19.1394043 20.51660156 C-16.75816009 17.91981186 -14.3792498 15.32093925 -12.00390625 12.71875 C-11.51148438 12.17992187 -11.0190625 11.64109375 -10.51171875 11.0859375 C-9.14391943 9.58910051 -7.77700959 8.09145086 -6.41015625 6.59375 C-4.31911737 4.34342615 -2.18954479 2.15398373 0 0 Z " fill="#296E70" transform="translate(330,183)" data-index="6"></path>
<path d="M0 0 C5.91086313 3.46029415 10.08261454 7.48437031 12.03515625 14.19140625 C13.08908948 23.09654993 11.8963796 29.02219508 6.84765625 36.37890625 C2.01554511 41.21101739 -4.24187016 44.29463513 -11.15234375 44.44140625 C-17.76117242 44.34484869 -23.63386413 42.36783544 -28.578125 37.81640625 C-33.88380959 31.59904064 -35.77344845 25.11802894 -35.37890625 17.01953125 C-34.3750049 10.16269561 -31.23064252 5.66118517 -25.80859375 1.4453125 C-17.47608447 -4.22149995 -8.87437086 -4.49196549 0 0 Z " fill="#855746" transform="translate(438.96484375,220.80859375)" data-index="7"></path>
<path d="M0 0 C7.14578763 3.61063565 11.02988206 7.67615366 13.9375 15.1875 C14.85254931 22.73665682 14.04420402 28.59826891 10.1875 35.25 C5.27858785 41.049467 -0.52270833 44.50626831 -8.03515625 45.5625 C-13.86113871 45.88227948 -17.92809132 44.32019974 -22.8125 41.25 C-23.699375 40.71375 -24.58625 40.1775 -25.5 39.625 C-30.69024877 34.29447424 -33.11844588 28.42950068 -33.3125 21 C-33.09409103 16.38389694 -32.4867242 13.12301436 -29.8125 9.25 C-29.131875 8.239375 -28.45125 7.22875 -27.75 6.1875 C-20.51596164 -2.02118424 -9.90403948 -4.11575151 0 0 Z " fill="#244359" transform="translate(111.8125,219.75)" data-index="8"></path>
<path d="M0 0 C5.39122933 2.73177045 8.54441492 6.48735151 11.55859375 11.640625 C13.52775309 18.47476623 13.53768747 24.03984999 10.55859375 30.578125 C7.06759837 36.86785039 2.51886753 41.11844855 -4.37890625 43.328125 C-12.23112112 44.13492366 -19.96044116 44.41811708 -26.37890625 39.328125 C-32.3808399 33.77028061 -34.42626171 28.61352185 -34.75390625 20.453125 C-34.62302232 14.88022514 -33.92969382 10.71939155 -30.37890625 6.328125 C-20.83869775 -2.66031771 -12.26065285 -4.82943885 0 0 Z " fill="#2B7476" transform="translate(275.37890625,60.671875)" data-index="9"></path>
<path d="M0 0 C5.35388767 3.1600441 9.67274186 8.70572557 11.625 14.5625 C12.43000735 22.41132165 10.78343255 28.26136787 6.5 34.8125 C1.74102565 39.36456242 -3.36655415 41.75638202 -10 41.9375 C-18.40468507 41.45681611 -23.74133813 38.75445269 -29.375 32.5625 C-33.06649399 26.67918145 -33.32006582 20.32197078 -32.375 13.5625 C-30.14027083 7.61315434 -25.55856291 3.11238076 -20.375 -0.4375 C-14.13445774 -2.51768075 -6.10573676 -2.63902178 0 0 Z " fill="#F9BA11" transform="translate(274.375,386.4375)" data-index="10"></path>
<path d="M0 0 C1.32 0.33 2.64 0.66 4 1 C2.37660195 2.70884005 0.70680947 4.37446717 -1 6 C-1.66 6 -2.32 6 -3 6 C-3.2475 6.639375 -3.495 7.27875 -3.75 7.9375 C-5 10 -5 10 -7.078125 10.62890625 C-8.02945312 10.81259766 -8.02945312 10.81259766 -9 11 C-8.60167969 10.54109375 -8.20335937 10.0821875 -7.79296875 9.609375 C-5.08857938 6.47728415 -2.42008229 3.36122541 0 0 Z " fill="#488A8D" transform="translate(294,96)" data-index="11"></path>
<path d="M0 0 C0.99 0.33 1.98 0.66 3 1 C0.36 2.98 -2.28 4.96 -5 7 C-5.66 6.67 -6.32 6.34 -7 6 C-5.90716423 4.96704564 -4.80029421 3.94892165 -3.6875 2.9375 C-3.07261719 2.36902344 -2.45773437 1.80054688 -1.82421875 1.21484375 C-0.92123047 0.61349609 -0.92123047 0.61349609 0 0 Z " fill="#F0BC2C" transform="translate(352,332)" data-index="12"></path>
<path d="M0 0 C0.33 0.99 0.66 1.98 1 3 C-0.8125 5.6875 -0.8125 5.6875 -3 8 C-3.66 8 -4.32 8 -5 8 C-4.45773019 4.20411134 -2.79872437 2.52788007 0 0 Z " fill="#916758" transform="translate(366,161)" data-index="13"></path>
<path d="M0 0 C0 3 0 3 -1.875 5.1875 C-4 7 -4 7 -6 7 C-4.60667426 3.63279613 -3.0210714 2.0140476 0 0 Z " fill="#886354" transform="translate(414,222)" data-index="14"></path>
<path d="M0 0 C0.625 1.8125 0.625 1.8125 1 4 C0.01 5.485 0.01 5.485 -1 7 C-1 6.34 -1 5.68 -1 5 C-2.32 5.33 -3.64 5.66 -5 6 C-3.35 4.02 -1.7 2.04 0 0 Z " fill="#348185" transform="translate(330,183)" data-index="15"></path>
<path d="M0 0 C-0.66 1.32 -1.32 2.64 -2 4 C-4.31 4 -6.62 4 -9 4 C-6.43425105 1.43425105 -3.68548192 0 0 0 Z " fill="#64A9AB" transform="translate(333,180)" data-index="16"></path>
</svg>